<svg id="Layer_1" data-name="Layer 1" xmlns="http://www.w3.org/2000/svg" width="150" height="150" viewBox="0 0 150 150">
  <defs>
    <style>
      .cls-1 {
        fill: #051d91;
      }

      .cls-2 {
        fill: #0a2193;
      }
    </style>
  </defs>
  <title>MicrosoftDynamicsNAV</title>
  <g>
    <path class="cls-1" d="M13,85.86a1.78,1.78,0,0,0,.93-.22A32.14,32.14,0,0,1,24,83.73a31.45,31.45,0,0,1,8.38.73c.37.09.37.08,1-.1V74.67c2-1.84,4-3.54,5.68-5.49.48,0,.51.28.51.57V87.14c-.35.39-.7.28-1.08.16a45,45,0,0,0-17.89-2,49.37,49.37,0,0,0-8.52,1.5,7.35,7.35,0,0,1-2.07.54V85c.27,0,.4-.24.55-.41A55.16,55.16,0,0,0,23.17,63.13q.25-.85.45-1.71c.13-.54.24-1.08.35-1.6a.75.75,0,0,1,.67.15V81.6A28.77,28.77,0,0,0,18.22,83c2.31-.2,4.55-.87,7-.87V75.45a35.31,35.31,0,0,0,7-10.77c.24-.16.42-.07.63.08v19a1.18,1.18,0,0,1-.94.17A31.85,31.85,0,0,0,28,83.4c-1.17-.1-2.36,0-3.53,0a26.44,26.44,0,0,0-8.52,1.27,10,10,0,0,1-2.12.71l-.25-.18c0-.09,0-.17-.07-.18s-.13.07-.13.16l0,0c-.17,0-.32,0-.38.2l0,0a.31.31,0,0,0-.33.17c-.17,0-.35,0-.5.14a.49.49,0,0,0,.17.67Zm1.4-1.28a.56.56,0,0,0,.69-.36A.8.8,0,0,0,14.43,84.58Zm-.35.14c.05.08.11.07.16,0S14.13,84.66,14.08,84.72Zm-.27.1c-.08.05-.08.1,0,.16S13.88,84.88,13.81,84.82Z"/>
    <path class="cls-1" d="M43.87,71a2.71,2.71,0,0,1-1.23,0V59.84a7.83,7.83,0,0,1,1.69,0l4,9.08,4.09-9.06h1.65V71c-.39.21-.79,0-1.29.13V62.35l-.2,0L48.71,71A.7.7,0,0,1,48,71L44,62.2l-.15,0Z"/>
    <path class="cls-1" d="M109.56,75.64h1.8l6.09,9.5.15,0V75.7a4.87,4.87,0,0,1,1.42-.08V87.4h-1.65l-6.43-9.88v9.85a3.78,3.78,0,0,1-1.38,0Z"/>
    <path class="cls-1" d="M42.72,87.18V75.88a32.59,32.59,0,0,1,5,.18,4.63,4.63,0,0,1,4.08,4.71c.24,3.64-1.78,6.07-5.41,6.4C45.17,87.27,44,87.18,42.72,87.18ZM44,86a13.31,13.31,0,0,0,3-.12,3.85,3.85,0,0,0,3.13-2.77,6.09,6.09,0,0,0,.11-2.88,3.44,3.44,0,0,0-2.79-2.94A10.93,10.93,0,0,0,44,77.14Z"/>
    <path class="cls-2" d="M82,87.15c0-1.47,0-2.94,0-4.41a5.51,5.51,0,0,0-.15-1.4,1.57,1.57,0,0,0-1.23-1.25,1.73,1.73,0,0,0-1.82.62,3.1,3.1,0,0,0-.59,2.08c0,1.44,0,2.88,0,4.33a2.61,2.61,0,0,1-1.24.07v-8a2.75,2.75,0,0,1,1.14,0c.21.27,0,.6.23.94a3.09,3.09,0,0,1,2.42-1.18A2.44,2.44,0,0,1,83,80.41c.32-.09.4-.41.59-.61a2.94,2.94,0,0,1,3-.75,2.25,2.25,0,0,1,1.65,2.08c.26,2,0,4,.13,6a2.58,2.58,0,0,1-1.19.06c-.25-.27-.14-.58-.14-.86,0-1.5,0-3-.06-4.51,0-1.08-.49-1.59-1.31-1.75a1.88,1.88,0,0,0-2.08,1.14,3.51,3.51,0,0,0-.33,1.63c0,1.43,0,2.87,0,4.33A3,3,0,0,1,82,87.15Z"/>
    <path class="cls-2" d="M101,64.17c0,1.7,0,3.37,0,5,0,.87.61,1.07,1.85.82.2.29.1.61.08.92a2.07,2.07,0,0,1-3.29-1.82c-.07-1.32,0-2.65,0-4a2.27,2.27,0,0,0-.08-1H96.64V71a2.4,2.4,0,0,1-1.3.12V64.27c-.47-.27-.9-.07-1.33-.2-.17-.3-.07-.64-.07-1H95.3c0-.54,0-1,0-1.46a2.52,2.52,0,0,1,3.41-2.46,1.61,1.61,0,0,1,0,1.07c-.64-.11-1.32-.3-1.79.29-.59.74-.36,1.61-.37,2.51a27.11,27.11,0,0,0,3,0V61.13a3.36,3.36,0,0,1,1.28-.44c.17.76,0,1.52.13,2.32h1.87a3,3,0,0,1,.08,1C102.31,64.22,101.66,64,101,64.17Z"/>
    <path class="cls-2" d="M120.41,87.4c1.52-4,3-7.84,4.5-11.73a5,5,0,0,1,1.49,0L131,87.39a6.71,6.71,0,0,1-1.55,0l-1.24-3.25h-5L122,87.37A4.26,4.26,0,0,1,120.41,87.4Zm7.24-4.58-2-5.49-2,5.49Z"/>
    <path class="cls-2" d="M138.6,75.63H140c-.12.7-3.83,10.78-4.33,11.78h-1.49q-2.12-5.8-4.28-11.73a6.31,6.31,0,0,1,1.56,0c1.15,3.29,2.31,6.59,3.52,10.06C136.21,82.28,137.4,79,138.6,75.63Z"/>
    <path class="cls-2" d="M75,87.16a3,3,0,0,1-1.19,0c-.2-.32,0-.66-.13-1-.34,0-.41.36-.62.54A3,3,0,0,1,69.6,87a2.42,2.42,0,0,1-.82-2.91,2.54,2.54,0,0,1,2.1-1.57c.92-.17,1.85-.29,2.77-.43,0-1.58-.73-2.23-2.19-2a4.64,4.64,0,0,0-2,.88v-1.3A5.38,5.38,0,0,1,72.94,79a2.31,2.31,0,0,1,2,2.17,11.86,11.86,0,0,1,0,1.58C75,84.21,75,85.67,75,87.16Zm-1.38-4a10.31,10.31,0,0,0-2.58.37A1.27,1.27,0,0,0,70,85.13a1.33,1.33,0,0,0,1.43,1.15C73,86.34,73.88,85.08,73.62,83.2Z"/>
    <path class="cls-2" d="M93.59,67c0,3.06-2.18,4.87-5.09,4.2a4,4,0,0,1-.67-.22c-1.66-.75-2.46-2.63-2.08-4.89a3.7,3.7,0,0,1,3.45-3.22C92,62.62,93.58,64.15,93.59,67ZM87,67.09c0,2.3,1.53,3.57,3.68,2.92,1.08-.33,1.64-1.5,1.6-3.06s-.64-2.54-1.74-2.89C88.56,63.44,87,64.77,87,67.09Z"/>
    <path class="cls-2" d="M71,67.1c0-3.35,2.54-4.83,5.39-4.1a3,3,0,0,1,.8.35c1.77,1.08,2.33,4.2,1.1,6.18a4.14,4.14,0,0,1-5.46,1.25A3.88,3.88,0,0,1,71,67.1Zm6.59,0a4.2,4.2,0,0,0-.14-1.22,2.34,2.34,0,0,0-2.33-1.92,2.5,2.5,0,0,0-2.59,1.73,4.44,4.44,0,0,0,0,2.79,2.45,2.45,0,0,0,2.58,1.72,2.29,2.29,0,0,0,2.35-1.88A4.2,4.2,0,0,0,77.62,67.07Z"/>
    <path class="cls-2" d="M52.14,79.15h1.44l2.35,6.69,2.45-6.64a4.83,4.83,0,0,1,1.25-.07,1.2,1.2,0,0,1-.19.77c-1.12,2.85-2.25,5.69-3.37,8.54a6.32,6.32,0,0,1-.79,1.47,2.49,2.49,0,0,1-2.78,1,1.72,1.72,0,0,1,0-1.1c2.16.48,2.14-1.4,2.82-2.59Z"/>
    <path class="cls-2" d="M67.35,87.18H66c0-1.2,0-2.37,0-3.54A11.58,11.58,0,0,0,66,81.78a1.75,1.75,0,0,0-1.32-1.68,2,2,0,0,0-2.18.82,2.91,2.91,0,0,0-.53,1.92v4.29a3.21,3.21,0,0,1-1.26.07v-8h1.15c.26.27,0,.67.23,1a3.17,3.17,0,0,1,2.55-1.29,2.46,2.46,0,0,1,2.57,2,5.73,5.73,0,0,1,.17,1.49Z"/>
    <path class="cls-2" d="M104.68,79.32v1.19a4.93,4.93,0,0,0-1.93-.47c-.92.08-1.41.65-1.25,1.44a1.2,1.2,0,0,0,.73.83c.55.28,1.12.52,1.66.82a2.07,2.07,0,0,1,1.16,2.2,2.16,2.16,0,0,1-1.57,1.85,4,4,0,0,1-3.33-.24,3.79,3.79,0,0,1,0-1.3,3.88,3.88,0,0,0,2.37.63c.52-.06,1-.2,1.14-.79a1.07,1.07,0,0,0-.62-1.32c-.52-.27-1.06-.51-1.58-.79A2.17,2.17,0,0,1,100.13,81,2.3,2.3,0,0,1,102,79.07,3.71,3.71,0,0,1,104.68,79.32Z"/>
    <path class="cls-2" d="M79.94,70.83V69.52a4.14,4.14,0,0,0,2.28.65c.55-.06,1.07-.14,1.26-.77s0-1-.75-1.42c-.54-.3-1.11-.55-1.65-.85a2.06,2.06,0,0,1-1.15-2,2.18,2.18,0,0,1,1.32-1.94,3.58,3.58,0,0,1,3.23.09,3.55,3.55,0,0,1,0,1.17,4.16,4.16,0,0,0-1.78-.49c-.74,0-1.24.34-1.37.88s.08,1,.78,1.41c.55.29,1.12.53,1.66.83a2,2,0,0,1,1.11,2.14A2.15,2.15,0,0,1,83.4,71,4.16,4.16,0,0,1,79.94,70.83Z"/>
    <path class="cls-2" d="M65.22,63.23a3.39,3.39,0,0,1,0,1.23,3.55,3.55,0,0,0-2.79-.38,2.64,2.64,0,0,0-1.35,1.09,3.78,3.78,0,0,0,.18,4.15c.88,1,2.21,1.12,3.94.28a2.79,2.79,0,0,1,0,1.07,4,4,0,0,1-5-.49A4.84,4.84,0,0,1,60,64.51,4.21,4.21,0,0,1,65.22,63.23Z"/>
    <path class="cls-2" d="M99.16,79.36a3.67,3.67,0,0,1,0,1.2c-1.62-.74-3.15-.89-4.24.84a3.67,3.67,0,0,0,.27,4.06c.87,1,2.08,1.06,4,.27v1a3.94,3.94,0,0,1-4.85-.39,4.81,4.81,0,0,1-.38-5.81A4.18,4.18,0,0,1,99.16,79.36Z"/>
    <path class="cls-2" d="M70.89,63v1.22a2,2,0,0,0-1.93.2,2.68,2.68,0,0,0-.91,2c0,1.5,0,3,0,4.5a2,2,0,0,1-1.29.12v-8a2.8,2.8,0,0,1,1.15,0c.24.36,0,.76.15,1.12C69.5,62.59,70,62.79,70.89,63Z"/>
    <path class="cls-1" d="M56.44,63.05h1.2v8a2.22,2.22,0,0,1-1.2,0Z"/>
    <path class="cls-1" d="M90.41,79.16h1.17v8a2.53,2.53,0,0,1-1.17,0Z"/>
    <path class="cls-2" d="M57.06,61.22c-.49-.08-.84-.32-.83-.85a.79.79,0,0,1,.81-.85.83.83,0,0,1,.88.87A.87.87,0,0,1,57.06,61.22Z"/>
    <path class="cls-2" d="M91.86,76.48a.81.81,0,0,1-.84.83.77.77,0,0,1-.84-.81.84.84,0,1,1,1.68,0Z"/>
    <path class="cls-2" d="M13,85.86l-.67.45a.49.49,0,0,1-.17-.67c.15-.15.33-.11.5-.14s.29,0,.33-.17l0,0c.14,0,.31,0,.38-.2l0,0,.2,0,.25.18C13.6,85.62,13.19,85.55,13,85.86Z"/>
  </g>
</svg>
