<?xml version="1.0" encoding="utf-8"?>
<!-- Generator: Adobe Illustrator 20.1.0, SVG Export Plug-In . SVG Version: 6.00 Build 0)  -->
<svg version="1.1" id="Layer_1" xmlns="http://www.w3.org/2000/svg" xmlns:xlink="http://www.w3.org/1999/xlink" x="0px" y="0px"
	 viewBox="0 0 150 150" style="enable-background:new 0 0 150 150;" xml:space="preserve">
<style type="text/css">
	.st0{fill:#F47622;}
</style>
<path class="st0" d="M129.2,71.8c-2.9-5-6.9-8.9-12-11.9c-3.8-2.2-7.7-3.6-12.1-4.2V39.9c4.4-1.9,7.2-6,7.2-10.9
	c0-6.6-5.3-12-11.9-12c-6.6,0-12,5.4-12,12c0,4.9,2.6,9,7,10.9v15.7c-3.5,0.5-7.2,1.6-10.6,3.3C78,53.8,55.6,36.7,42.4,26.8
	c0.3-1.1,0.6-2.3,0.6-3.5C43,16,37.1,10,29.8,10s-13.3,6-13.3,13.3c0,7.3,5.9,13.2,13.3,13.2c2.5,0,4.8-0.7,6.8-1.9l2.8,2.1l38,27.4
	c-2,1.8-3.9,3.9-5.4,6.3c-3,4.8-4.9,10.1-4.9,15.9v1.2c0,4,0.8,7.9,2.1,11.5c1.2,3.1,2.8,6,4.9,8.5l-12.6,12.7
	c-1.1-0.4-2.3-0.6-3.5-0.6c-2.7,0-5.3,1.1-7.2,3s-3,4.5-3,7.2c0,2.7,1.1,5.3,3,7.2c2,2,4.5,3,7.2,3c2.7,0,5.3-1.1,7.2-3
	c1.9-2,3-4.5,3-7.2c0-1.1-0.2-2.1-0.5-3.1l13-13c1.8,1.2,3.7,2.3,5.8,3.2c4.1,1.8,8.6,2.8,13.6,2.8h0.9c5.5,0,10.6-1.3,15.5-3.9
	c5.1-2.8,9.1-6.6,12.1-11.4c3-4.9,4.7-10.2,4.7-16.1v-0.3C133.4,82.1,132.1,76.7,129.2,71.8L129.2,71.8z M113.3,99.1
	c-3.5,3.9-7.6,6.3-12.2,6.3h-0.7c-2.6,0-5.2-0.7-7.7-2.1c-2.8-1.5-5-3.5-6.8-6.2C84,94.7,83,91.9,83,88.9V88c0-2.9,0.6-5.7,2-8.3
	c1.5-2.9,3.6-5.1,6.3-6.9c2.7-1.8,5.5-2.6,8.7-2.6h0.3c2.9,0,5.6,0.6,8.2,1.9c2.6,1.4,4.8,3.3,6.5,5.9c1.6,2.5,2.6,5.2,2.9,8.2
	c0,0.6,0.1,1.2,0.1,1.8C117.9,92,116.3,95.8,113.3,99.1L113.3,99.1z"/>
</svg>
