<?xml version="1.0" encoding="utf-8"?>
<!-- Generator: Adobe Illustrator 22.1.0, SVG Export Plug-In . SVG Version: 6.00 Build 0)  -->
<svg version="1.1" id="Layer_1" xmlns="http://www.w3.org/2000/svg" xmlns:xlink="http://www.w3.org/1999/xlink" x="0px" y="0px"
	 viewBox="0 0 150 150" style="enable-background:new 0 0 150 150;" xml:space="preserve">
<style type="text/css">
	.st0{fill:#04DC04;}
	.st1{fill:#908D88;}
</style>
<g>
	<path class="st0" d="M10,79.3c0.1,0.1,0.1,0,0.2-0.1c0.5-0.5,1.1-1,1.6-1.6c0.2-0.2,0.3-0.2,0.5,0c0.7,0.6,1.4,1.1,2.3,1.3
		c1.3,0.4,2.7,0.5,4-0.1c0.3-0.1,0.5-0.3,0.7-0.5c0.5-0.6,0.4-1.5-0.4-1.8c-0.6-0.3-1.3-0.3-1.9-0.3c-1.3-0.1-2.6-0.2-3.8-0.6
		c-1.1-0.4-2-1-2.4-2.2c-0.6-1.7,0.1-3.4,1.7-4.4c1.1-0.7,2.4-1,3.7-1c2.1,0,4.1,0.5,5.9,1.7c0.3,0.2,0.3,0.2,0.1,0.5
		c-0.5,0.5-1,0.9-1.4,1.4c-0.2,0.2-0.2,0.2-0.4,0.1c-1.7-1-3.5-1.3-5.4-0.8c-0.3,0.1-0.6,0.2-0.8,0.4c-0.8,0.6-0.7,1.5,0.3,1.9
		c0.8,0.3,1.7,0.4,2.6,0.5c1.1,0.1,2.2,0.1,3.2,0.5c1.2,0.4,2.2,1.2,2.4,2.5c0.3,1.9-0.4,3.7-2.2,4.6c-0.9,0.5-1.8,0.7-2.8,0.8
		c-2.8,0.2-5.3-0.4-7.4-2.3c0,0-0.1-0.1-0.2-0.1C10,79.4,10,79.4,10,79.3z"/>
	<path class="st1" d="M140,81.6c-0.7,0.3-1.3,0.5-2,0.7c-0.8,0.1-1.6,0.1-2.4-0.1c-1.1-0.3-1.6-1.1-1.8-2.3
		c-0.1-0.4-0.1-0.7-0.1-1.1c0-2.8,0-5.7,0-8.5c0-0.5,0.1-0.5-0.5-0.5c-0.5,0-0.9,0-1.4,0c-0.2,0-0.2-0.1-0.2-0.2
		c0-0.9,0-0.9,0.9-0.9c0.3,0,0.7,0,1,0c0.2,0,0.3-0.1,0.3-0.3c0-1.1,0-2.1,0-3.2c0-0.3,0.1-0.4,0.3-0.4c0.2,0,0.5-0.1,0.7-0.1
		c0.2-0.1,0.3,0,0.3,0.3c0,1.1,0,2.3,0,3.4c0,0.2,0.1,0.3,0.3,0.3c1.1,0,2.1,0,3.2,0c0.3,0,0.3,0.1,0.3,0.3c0,0.2,0,0.3,0,0.5
		c0,0.3-0.1,0.3-0.4,0.3c-1,0-2.1,0-3.1,0c-0.3,0-0.3,0.1-0.3,0.3c0,2.9,0,5.9,0,8.8c0,0.3,0,0.5,0.1,0.8c0.2,0.9,0.8,1.5,1.8,1.5
		c0.9,0,1.7-0.2,2.4-0.6c0.3-0.1,0.4-0.1,0.4,0.2c0.1,0.2,0.1,0.4,0.2,0.5C140,81.4,140,81.5,140,81.6z"/>
	<path class="st0" d="M44.1,69.6c0-0.4,0-0.8,0-1.1c0-0.3,0.1-0.3,0.3-0.3c0.8,0,1.6,0,2.4,0c0.3,0,0.4,0.1,0.4,0.4
		c0,3.6,0,7.2,0,10.8c0,0.7,0,1.3,0,2c-0.1,2.6-1.6,4.5-4,5.3c-2.4,0.8-4.7,0.4-6.8-1.1c-0.5-0.3-0.5-0.3-0.1-0.7
		c0.5-0.5,1-1,1.5-1.5c0.1-0.1,0.2-0.2,0.4-0.1c0.5,0.3,1.1,0.6,1.7,0.7c1.2,0.2,2.3-0.1,3.3-0.9c0.5-0.5,0.8-1.1,0.8-1.8
		c0-0.2,0-0.5,0-0.7c0-0.1,0-0.2-0.1-0.2c-0.1,0-0.1,0.1-0.2,0.1c-0.8,0.7-1.7,1.2-2.7,1.4c-2,0.3-3.7-0.2-5.1-1.8
		c-0.6-0.6-0.8-1.4-0.9-2.2c-0.2-2.1-0.3-4.1,0-6.2c0.2-1.7,1.3-3,3-3.5c1.8-0.6,3.6-0.5,5.2,0.7C43.6,69.1,43.8,69.3,44.1,69.6z
		 M44.1,74.9C44.1,74.9,44.1,74.9,44.1,74.9c0-0.6,0-1.2,0-1.8c0-1-0.5-1.8-1.4-2.2c-1-0.5-2.1-0.5-3.1,0c-0.9,0.4-1.5,1-1.5,2
		c-0.1,1.4-0.1,2.7,0,4.1c0,0.5,0.3,0.9,0.6,1.3c0.9,1,2.7,1.3,4,0.7c1-0.5,1.5-1.2,1.5-2.4C44.1,76,44.1,75.4,44.1,74.9z"/>
	<path class="st0" d="M55.4,76.2c-1.5,0-3,0-4.5,0c-0.3,0-0.3,0.1-0.3,0.3c0.2,1.2,0.9,2,1.9,2.4c1.2,0.5,2.3,0.4,3.5,0
		c0.6-0.2,1.2-0.5,1.7-1c0.1-0.1,0.2-0.1,0.3,0c0.5,0.5,1,1,1.5,1.5c0.2,0.2,0.2,0.3,0,0.4C58,81.3,56.1,82,54,82
		c-1.4,0-2.6-0.4-3.8-1.1c-1.3-0.9-2.1-2.1-2.5-3.6c-0.5-1.9-0.4-3.8,0.3-5.7c0.8-2,2.2-3.2,4.4-3.6c1.6-0.3,3.2-0.2,4.7,0.5
		c1.4,0.6,2.3,1.7,2.8,3.1c0.5,1.4,0.5,2.9,0.4,4.3c0,0.2-0.1,0.3-0.4,0.3C58.4,76.2,56.9,76.2,55.4,76.2
		C55.4,76.2,55.4,76.2,55.4,76.2z M54.2,73.8c1.1,0,2.2,0,3.4,0c0.2,0,0.3,0,0.3-0.2c-0.1-1.1-0.5-2-1.5-2.7c-0.9-0.6-2-0.7-3-0.5
		c-1.6,0.3-2.7,1.5-2.8,3.1c0,0.3,0.1,0.3,0.3,0.3C52,73.8,53.1,73.8,54.2,73.8z"/>
	<path class="st0" d="M34.7,76.8c0,1.5,0,3,0,4.5c0,0.3-0.1,0.4-0.4,0.4c-0.8,0-1.6,0-2.4,0c-0.2,0-0.3-0.1-0.3-0.3
		c0-0.2,0-0.5,0-0.7c0-0.1,0-0.2-0.1-0.2c-0.1,0-0.1,0.1-0.2,0.1c-0.4,0.4-0.8,0.7-1.3,0.9c-1.6,0.7-3.2,0.6-4.8,0.1
		c-1.1-0.4-1.9-1.2-2.2-2.3c-0.2-0.6-0.3-1.3-0.2-2c0.1-1.8,1.1-3,2.9-3.4c0.6-0.1,1.2-0.2,1.8-0.2c1.2,0,2.5,0,3.7,0
		c0.5,0,0.5,0,0.5-0.4c0-0.3,0-0.5,0-0.8c0.1-1.1-0.5-1.7-1.5-1.9c-1.8-0.4-3.4-0.2-4.9,0.8c-0.2,0.1-0.3,0.1-0.4-0.1
		c-0.5-0.5-1-1-1.4-1.5c-0.2-0.2-0.2-0.3,0-0.4c1.6-1.2,3.5-1.7,5.5-1.7c1.3,0,2.6,0.2,3.7,0.8c1.3,0.6,1.9,1.7,2.1,3.1
		c0.1,1.2,0,2.3,0.1,3.5C34.7,75.8,34.7,76.3,34.7,76.8z M29.3,76.2C29.3,76.2,29.3,76.2,29.3,76.2c-0.4,0-0.9,0-1.3,0
		c-0.6,0-1.2,0-1.7,0.2c-0.8,0.2-1.1,0.9-0.9,1.6c0.2,0.6,0.6,0.9,1.1,1.1c1.2,0.3,2.4,0.3,3.6,0.1c0.6-0.1,1.1-0.5,1.4-1.1
		c0.2-0.5,0.2-1,0.2-1.6c0-0.2-0.1-0.3-0.3-0.3C30.7,76.2,30,76.2,29.3,76.2z"/>
	<path class="st1" d="M103.5,80.6c-0.6,0.6-1.2,1-1.9,1.2c-1.3,0.5-2.7,0.7-4.1,0.3c-1.2-0.3-2-1.1-2.3-2.3
		c-0.3-1.3-0.2-2.5,0.6-3.7c0.6-0.8,1.4-1.2,2.3-1.5c1.4-0.4,2.9-0.5,4.4-0.4c0.3,0,0.5,0,0.8,0c0.1,0,0.2,0,0.2-0.2
		c0-0.9,0.1-1.7-0.1-2.6c-0.3-1.2-0.8-1.7-2.1-1.9c-0.8-0.1-1.5-0.1-2.3,0.1c-1.1,0.2-1.8,1-2,2.1c0,0.2-0.1,0.3-0.4,0.3
		c-0.2-0.1-0.5-0.1-0.7-0.1c-0.2,0-0.2-0.1-0.2-0.3c0.3-1.5,1.2-2.5,2.7-2.9c1.3-0.3,2.6-0.3,4,0c1.2,0.3,1.9,1.1,2.2,2.3
		c0.1,0.6,0.2,1.1,0.2,1.7c0,2.4,0,4.9,0,7.3c0,0.2,0,0.4,0,0.7c0.1,0.5,0.4,0.7,0.8,0.7c0.2,0,0.4,0,0.5-0.1c0.2-0.1,0.3,0,0.3,0.2
		c0.1,0.6,0,0.7-0.6,0.8c-0.3,0.1-0.6,0.1-0.9,0.1C104,82.2,103.6,81.7,103.5,80.6z M103.4,77.4c0-0.6,0-1.1,0-1.6
		c0-0.3-0.1-0.4-0.4-0.4c-1.1,0-2.2-0.1-3.4,0.1c-0.5,0.1-1.1,0.2-1.6,0.4c-1.4,0.6-1.8,1.8-1.7,3.3c0.2,1.2,0.7,1.8,1.8,2
		c1.9,0.3,3.6-0.3,5-1.6c0.1-0.1,0.2-0.3,0.2-0.4C103.4,78.5,103.4,77.9,103.4,77.4z"/>
	<path class="st1" d="M74.1,75.3c0-2.1,0-4.2,0-6.3c0-0.3,0.1-0.4,0.4-0.4c0.8,0,0.8,0,0.8,0.8c0,0.2,0,0.5,0,0.7
		c0,0.2,0.1,0.2,0.2,0.1c0.3-0.2,0.5-0.4,0.8-0.5c1.4-0.8,2.9-1.4,4.6-1.3c2,0.1,3.3,1.3,3.5,3.3c0.1,0.6,0.1,1.3,0.1,1.9
		c0,2.6,0,5.2,0,7.8c0,0.6,0,0.6-0.6,0.6c-0.7,0-0.7,0-0.7-0.8c0-2.7,0-5.4,0-8.1c0-0.5,0-0.9-0.1-1.4c-0.3-1.5-1.1-2.2-2.6-2.2
		c-1.4-0.1-2.7,0.4-3.9,1.1c-0.4,0.2-0.7,0.5-1.1,0.8c-0.2,0.1-0.2,0.3-0.2,0.5c0,3.2,0,6.5,0,9.7c0,0.4,0,0.5-0.4,0.4
		c-0.3,0-0.7,0.1-0.8-0.1c-0.1-0.2,0-0.5,0-0.8C74.1,79.2,74.1,77.3,74.1,75.3z"/>
	<path class="st1" d="M108.6,75.3c0,1,0.1,1.9,0.4,2.9c0.7,2.2,2.4,3.1,4.6,2.9c0.7,0,1.4-0.2,2-0.6c0.7-0.5,1.2-1.2,1.4-2.1
		c0.1-0.2,0.1-0.3,0.4-0.3c0.2,0.1,0.5,0.1,0.7,0.1c0.2,0,0.3,0.1,0.2,0.3c-0.3,1.4-1.1,2.6-2.4,3.2c-2,0.9-4,0.8-5.9-0.1
		c-1.3-0.7-2-1.8-2.4-3.2c-0.5-2-0.5-4,0-6c0.6-2.3,2.4-3.7,4.7-4c1.2-0.1,2.4-0.1,3.5,0.5c1.5,0.7,2.2,2,2.3,3.6
		c0,0.1,0,0.2-0.2,0.2c-0.3,0-0.7,0.1-1,0.1c-0.2,0-0.3-0.1-0.3-0.2c0-0.4-0.1-0.8-0.3-1.2c-0.4-1-1.1-1.6-2.2-1.8
		c-1.4-0.2-2.7-0.1-3.9,0.8c-1,0.7-1.4,1.8-1.6,2.9C108.6,74,108.6,74.6,108.6,75.3z"/>
	<path class="st1" d="M121.2,75.2c0,1.2,0.1,2.3,0.6,3.4c0.7,1.6,1.9,2.5,3.6,2.5c0.8,0,1.6,0,2.4-0.4c1-0.5,1.5-1.3,1.8-2.4
		c0.1-0.2,0.1-0.3,0.4-0.2c0.2,0.1,0.5,0.1,0.7,0.1c0.3,0,0.3,0.2,0.3,0.4c-0.4,1.5-1.2,2.6-2.6,3.1c-2,0.8-3.9,0.7-5.8-0.3
		c-1.1-0.6-1.7-1.6-2.1-2.7c-0.7-2.3-0.8-4.7,0.1-6.9c0.8-2.1,2.4-3.2,4.6-3.5c1.1-0.1,2.2-0.1,3.3,0.4c1.5,0.6,2.3,1.8,2.5,3.3
		c0.1,0.6,0.1,0.6-0.6,0.7c-0.3,0-0.5,0.2-0.7,0c-0.2-0.1-0.1-0.5-0.2-0.7c-0.2-0.9-0.6-1.7-1.5-2.2c-0.5-0.3-1-0.4-1.6-0.4
		c-1.4-0.1-2.7,0.3-3.7,1.4c-0.7,0.8-1.1,1.8-1.2,2.9C121.3,74.2,121.3,74.7,121.2,75.2z"/>
	<path class="st1" d="M88.3,74.8c0-1.6,0-3.1,0-4.7c0-0.3-0.1-0.4-0.4-0.4c-0.5,0-1,0-1.5,0c-0.2,0-0.3-0.1-0.3-0.3
		c0-0.9,0-0.9,0.9-0.9c0.3,0,0.6,0,0.9,0c0.3,0,0.4-0.1,0.4-0.4c0-1,0-2.1,0-3.1c0-0.3,0.1-0.4,0.3-0.4c0.2,0,0.4,0,0.6-0.1
		c0.3-0.1,0.4,0,0.3,0.3c0,1,0,2,0,3c0,0.7,0,0.7,0.7,0.7c0.9,0,1.8,0,2.7,0c0.2,0,0.3,0,0.3,0.3c0,0.9,0,0.9-0.9,0.9
		c-0.8,0-1.7,0-2.5,0c-0.3,0-0.4,0.1-0.4,0.4c0,2.7,0,5.4,0,8.1c0,0.5,0,1,0.1,1.5c0.2,1,0.8,1.5,1.7,1.5c0.9,0.1,1.7-0.2,2.5-0.5
		c0.2-0.1,0.4-0.1,0.4,0.2c0,0.1,0,0.1,0.1,0.2c0.2,0.5,0.2,0.5-0.3,0.8c-1.2,0.5-2.4,0.7-3.7,0.4c-1.2-0.3-1.8-1-2-2.2
		c-0.1-0.4-0.1-0.8-0.1-1.1C88.3,77.5,88.3,76.2,88.3,74.8z"/>
	<path class="st1" d="M68.8,72.5c0-3.1,0-6.2,0-9.2c0-0.3,0.1-0.4,0.3-0.3c0.2,0,0.4,0,0.6,0c0.3,0,0.4,0.1,0.4,0.4
		c0,6.1,0,12.2,0,18.3c0,0.3-0.1,0.4-0.4,0.4c-0.3,0-0.7,0.1-0.8-0.1c-0.1-0.2-0.1-0.5-0.1-0.8C68.8,78.2,68.8,75.4,68.8,72.5z"/>
</g>
</svg>
