<?xml version="1.0" encoding="utf-8"?>
<!-- Generator: Adobe Illustrator 20.1.0, SVG Export Plug-In . SVG Version: 6.00 Build 0)  -->
<svg version="1.1" id="Layer_1" xmlns="http://www.w3.org/2000/svg" xmlns:xlink="http://www.w3.org/1999/xlink" x="0px" y="0px"
	 viewBox="0 0 150 150" style="enable-background:new 0 0 150 150;" xml:space="preserve">
<style type="text/css">
	.st0{fill:#02DD02;}
</style>
<g>
	<path class="st0" d="M77,95.1c1.8-1.8,3.6-3.6,5.4-5.3c4,2.7,8.1,3.4,12.4,0.6c2.9-1.8,3.4-4.7,3-7.9c-2.9,3-6.4,4.3-10.4,4.2
		c-7.1-0.1-12.2-4.8-12.9-11.9c-0.5-4.8-0.4-9.5,0.1-14.3c0.7-5.7,5.2-9.8,10.9-10.3c4.7-0.4,8.9,0.6,12.3,4.5c0-1.4,0-2.6,0-3.7
		c2.7,0,5.4,0,8.1,0c0,0.4,0,0.7,0,1.1c0,10.5,0.1,21.1,0,31.6c-0.1,11.8-9.3,16.4-17.8,16C84,99.6,80.4,97.8,77,95.1z M97.9,68.4
		c0-2.1,0.3-4.3-0.3-6.3c-1-3.6-5.2-5.6-9.4-4.7c-4,0.9-6,3.3-6.1,7.4c-0.1,2.5,0,5.1,0,7.6c0.1,3.4,1.7,5.5,4.9,6.7
		c5,1.8,11.6-0.8,11-7.7C97.8,70.3,97.9,69.3,97.9,68.4z"/>
	<path class="st0" d="M133.6,76c1.6,1.6,3.1,3.1,4.7,4.7c-4.1,4-8.9,6.2-14.7,6c-10.2-0.2-16.8-7.1-16.9-17.3c0-3.6,0.3-7,1.9-10.3
		c2.9-6,8.8-9.4,15.6-8.9c1.9,0.1,3.9,0.3,5.7,0.9c6.2,2,9.9,7.2,10.1,14.3c0.1,1.7,0,3.4-0.1,5.2c-0.1,1-0.5,1.1-1.4,1.1
		c-7.5,0-15,0-22.5,0c-0.4,0-0.8,0-1.2,0c-0.4,2.7,1.5,5.7,4.6,6.8C124.6,80.4,129.3,79.4,133.6,76z M133.5,65.5
		c-0.3-5.9-4.6-9.5-10.7-8.8c-4.9,0.6-8.7,4.7-8,8.8C121,65.5,127.2,65.5,133.5,65.5z"/>
	<path class="st0" d="M73.6,86c-2.6,0-5.2,0-7.8,0c0-1,0-2.1,0-3.4c-1.9,2-3.9,3.3-6.4,3.7c-5.1,0.8-10.1,0.9-13.9-3.3
		c-3-3.3-3.3-7.5-1.9-11.6c1.3-3.8,4.6-5.2,8.3-5.7c4.1-0.5,8.3-0.1,12.4-0.2c0.4,0,0.9,0,1.4,0c0-1.4,0.1-2.7,0-4
		c-0.3-2.4-2.2-3.9-5.2-4.3c-4.3-0.6-8.3,0.3-11.9,2.8c-1.6-1.6-3.2-3.2-4.8-4.9c2.8-2.2,6.1-3.7,9.7-4.4c4.6-0.8,9.1-0.6,13.5,1.1
		c4.4,1.8,6.5,5.3,6.6,9.9c0.1,8,0,16,0,24C73.7,85.7,73.6,85.8,73.6,86z M65.7,71.7c-3.5,0-7,0-10.4,0c-0.7,0-1.3,0.1-2,0.2
		c-2.3,0.3-3.6,1.4-3.7,3.1c-0.1,2.2,0.9,3.6,3.3,4.2c2.6,0.6,5.2,0.6,7.8,0.3c3.2-0.4,4.7-2.1,4.9-5.3
		C65.8,73.4,65.7,72.6,65.7,71.7z"/>
	<path class="st0" d="M41.9,55.2c-1.6,1.5-3.1,2.9-4.5,4.4c-0.5,0.5-0.8,0.1-1.2-0.1c-4.2-2.3-8.6-3.2-13.3-2.1
		C20.4,58,19,59.3,19,60.7c0,1.5,1.3,2.6,3.9,3.3c3.1,0.8,6.3,0.6,9.4,1.1c3.7,0.6,7.3,1.6,9.3,5.3c2.6,5,0.2,11.5-5.2,14.4
		C28.6,88.8,16,86.6,10,80.2c1.7-1.7,3.4-3.4,5.3-5.1c2,1.7,4.3,3.3,7.2,4c3,0.7,6,0.8,9-0.3c0.6-0.3,1.2-0.6,1.8-1
		c1-0.8,1.6-1.8,1.4-3.1c-0.3-1.4-1.3-2.1-2.6-2.4c-2.6-0.6-5.3-0.6-8-0.9c-2.5-0.3-5.1-0.7-7.4-1.9c-6.6-3.3-7.2-11.7-1.2-16
		c4.3-3,9.1-3.5,14.2-3C34.1,50.9,38.1,52.3,41.9,55.2z"/>
</g>
</svg>
