<?xml version="1.0" encoding="utf-8"?>
<!-- Generator: Adobe Illustrator 22.0.0, SVG Export Plug-In . SVG Version: 6.00 Build 0)  -->
<svg version="1.1" id="Layer_1" xmlns="http://www.w3.org/2000/svg" xmlns:xlink="http://www.w3.org/1999/xlink" x="0px" y="0px"
	 viewBox="0 0 150 150" style="enable-background:new 0 0 150 150;" xml:space="preserve">
<style type="text/css">
	.st0{fill:#979797;}
	.st1{fill:#EEA903;}
</style>
<g>
	<path class="st0" d="M29.4,87.4c-0.1,0-0.2,0.1-0.3,0.2c-1.7,1.2-3.5,2.1-5.6,2.3c-0.9,0.1-1.8,0.2-2.7,0.2c-1.8,0-3.6-0.2-5.3-0.7
		c-1.7-0.4-3.4-1.1-5-1.9c-0.4-0.2-0.4-0.4-0.2-0.7c0.8-1.6,1.6-3.2,2.4-4.8c0.3-0.6,0.4-0.5,0.9-0.2c1.4,0.8,2.9,1.5,4.6,1.8
		c1.5,0.2,2.9,0.4,4.4-0.1c0.7-0.2,1.4-0.6,1.7-1.3c0.4-1,0.2-1.8-0.7-2.4c-1-0.6-2.2-1-3.3-1.4c-2-0.6-4.1-1.3-5.9-2.4
		c-2-1.2-3.6-2.9-4.1-5.3c-0.5-3.1,0.3-5.8,2.8-7.9c2-1.7,4.4-2.6,7.1-2.8c0.7-0.1,1.5-0.1,2.2-0.1c1.6,0.1,3.2,0.3,4.8,0.6
		c1.6,0.4,3.2,0.9,4.7,1.6c0.2,0.1,0.4,0.2,0.7,0.3c-0.4,0.9-1,1.8-1.5,2.6c-0.5,0.8-1,1.7-1.4,2.5c-0.3,0.6-0.4,0.6-0.9,0.3
		c-2.4-1.2-5-1.8-7.8-1.6c-0.9,0.1-1.7,0.3-2.3,0.9c-0.7,0.6-0.7,1.3-0.1,2c0.4,0.4,0.9,0.8,1.5,1c1.7,0.9,3.6,1.4,5.4,2.1
		c1.9,0.7,3.7,1.5,5.2,2.9c1,0.9,1.6,2,1.9,3.3c0,0.2,0.1,0.3,0.2,0.5c0.3-0.6,0.5-1.3,0.7-1.9c0.7-1.9,1.4-3.8,2.2-5.8
		c0.9-2.3,1.7-4.6,2.6-6.8c0.4-1.2,0.9-2.4,1.4-3.6c0.1-0.3,0.3-0.4,0.6-0.4c2.4,0,4.9,0,7.3,0c0.3,0,0.5,0.1,0.6,0.4
		c0.8,2.4,1.7,4.7,2.6,7c0.8,2.2,1.6,4.4,2.4,6.6c0.9,2.5,1.8,4.9,2.7,7.4c0.1,0.2,0.2,0.4,0.3,0.6c0-0.2,0-0.4,0-0.6
		c0-6.7,0-13.5,0-20.2c0-0.2,0-0.3,0-0.5c0-0.7,0-0.7,0.7-0.7c3.5,0,6.9-0.1,10.4,0c2.4,0.1,4.7,0.4,6.8,1.5c2.5,1.2,4,3.2,4.5,5.9
		c0.4,2.3,0.4,4.5-0.4,6.7c-0.8,2.1-2.2,3.6-4.1,4.6c-1.7,0.9-3.5,1.3-5.4,1.4c-1.3,0.1-2.7,0.1-4,0.1c-0.6,0-0.6,0-0.6,0.6
		c0,2.6,0,5.2,0,7.7c0,0.8,0,0.7-0.7,0.7c-4.2,0-8.5,0-12.7,0c-0.7,0-0.7,0-0.9-0.7c-0.3-1.1-0.7-2.1-1-3.2
		c-0.1-0.3-0.2-0.5-0.6-0.3c-1.9,0.7-3.9,0.6-5.9,0.6c-1,0-2.1-0.2-3.1-0.5c-0.5-0.2-0.5-0.2-0.7,0.4c-0.4,1.1-0.7,2.1-1,3.2
		c-0.2,0.6-0.2,0.6-0.9,0.6c-2.4,0-4.8,0-7.2,0c-0.2,0-0.4,0-0.6,0c0.1-0.4,0.2-0.8,0.4-1.2C29.3,88.1,29.5,87.8,29.4,87.4
		C29.5,87.4,29.5,87.4,29.4,87.4C29.5,87.4,29.4,87.4,29.4,87.4z M65.8,74.1c0.5,0,1.2,0,1.9-0.1c1-0.2,2-0.5,2.7-1.4
		C71,71.8,71,70.9,71,70c0-1.6-1-2.7-2.3-3.1c-1.4-0.5-2.9-0.4-4.4-0.4c-0.3,0-0.4,0.1-0.4,0.4c0,0.3,0,0.6,0,0.9c0,1.9,0,3.9,0,5.8
		c0,0.6,0,0.6,0.6,0.6C64.9,74.2,65.3,74.1,65.8,74.1z M43.7,69.7c-0.1,0.1-0.1,0.1-0.1,0.1c-1,2.9-1.9,5.9-2.8,8.8
		c-0.1,0.3,0,0.4,0.3,0.5c1.7,0.5,3.3,0.6,5,0c0.6-0.2,0.6-0.2,0.4-0.7c-0.7-2.4-1.5-4.9-2.2-7.3C44.1,70.7,44.1,70.2,43.7,69.7z"/>
	<path class="st1" d="M81.9,81.3c-0.1-3.9,2.5-7.2,6.1-8.3c0.9-0.3,1.9-0.5,2.9-0.5c2.1,0.1,4.2,0.6,5.9,2.1
		c1.4,1.2,2.3,2.6,2.8,4.3c0.6,2.4,0.3,4.7-1,6.8c-1.4,2.3-3.6,3.7-6.3,4.1c-2.1,0.3-4,0-5.9-1c-1.6-0.9-2.8-2.1-3.6-3.7
		C82.1,84,81.8,82.7,81.9,81.3z M90.9,86.6c2.8,0.1,5.1-2.2,5.1-5.3c0-2.9-2.2-5.2-4.8-5.3c-3.4-0.2-5.4,2.4-5.4,5.3
		C85.6,84.2,88.1,86.7,90.9,86.6z"/>
	<path class="st1" d="M122.8,84.5c-1.3,0-2.7,0-4,0c-0.5,0-0.5,0-0.3,0.5c0.5,1.4,1.6,2,3,2.1c0.9,0,1.9-0.3,2.7-0.9
		c0.5-0.4,0.5-0.4,0.9,0c0.4,0.4,0.9,0.7,1.3,1.1c0.2,0.2,0.3,0.4,0,0.6c-1.2,1.3-2.8,2-4.5,2c-1.6,0.1-3.1-0.3-4.4-1.2
		c-1.6-1.1-2.5-2.7-2.7-4.7c-0.2-1.8,0.2-3.5,1.3-5c1.1-1.4,2.5-2.3,4.3-2.5c1.2-0.2,2.4,0,3.5,0.5c1.9,0.8,2.8,2.4,3.3,4.2
		c0.2,0.8,0.3,1.7,0.3,2.6c0,0.6,0,0.6-0.6,0.6C125.4,84.5,124.1,84.5,122.8,84.5z M118.3,82.3c1.7,0,3.5,0,5.2,0
		c0.3,0,0.3-0.2,0.3-0.4c-0.2-1.6-1.5-2.8-3.2-2.4C119.2,79.8,118.5,80.7,118.3,82.3z"/>
	<path class="st1" d="M104.9,78.6c0.5-0.4,0.8-0.9,1.3-1.2c1-0.6,2-0.9,3.1-0.8c1.1,0.1,2.1,0.6,2.8,1.4c0.6,0.8,0.9,1.7,0.9,2.7
		c0,2.8,0,5.6,0,8.4c0,0.4-0.1,0.6-0.5,0.5c-0.9,0-1.7,0-2.6,0c-0.4,0-0.5-0.1-0.5-0.5c0-2.2,0-4.3,0-6.5c0-0.5-0.1-0.9-0.2-1.3
		c-0.2-1-1.2-1.6-1.9-1.6c-1.4,0-2,0.4-2.4,1.6c-0.1,0.2-0.1,0.5-0.1,0.7c0,2.3,0,4.6,0,7c0,0.6,0,0.6-0.6,0.6c-0.8,0-1.7,0-2.5,0
		c-0.6,0-0.6,0-0.6-0.6c0-1.8,0-3.6,0-5.3c0-2.1,0-4.2,0-6.4c0-0.6,0-0.6,0.6-0.6c0.9,0,1.8,0,2.7,0c0.3,0,0.4,0.1,0.4,0.4
		C104.9,77.7,104.9,78.1,104.9,78.6z"/>
	<path class="st0" d="M90,65.3c0.2,0.1,0.5,0.3,0.7,0.4c0.9,0.5,1.2,1.3,1.2,2.2c-0.1,1.1-0.6,1.9-1.7,2.4c-0.7,0.3-1.4,0.4-2.1,0.4
		c-1.4,0-2.8,0-4.2,0c-0.4,0-0.5-0.1-0.5-0.5c0-3.1,0-6.2,0-9.3c0-0.3,0.1-0.5,0.5-0.5c1.5,0,3.1,0,4.6,0c1.1,0.1,2.2,0.4,2.6,1.6
		c0.5,1.1,0.1,2.3-0.9,3.1C90.2,65.1,90,65.1,90,65.3z M87,69c0.5,0,1,0,1.5,0c1.1,0,1.7-0.7,1.6-1.6c-0.1-0.7-0.7-1.2-1.6-1.2
		c-1,0-2.1,0-3.1,0c-0.2,0-0.4,0.1-0.4,0.3c0,0.7,0,1.4,0,2.1c0,0.3,0.1,0.4,0.4,0.4C86,69,86.5,69,87,69z M86.8,61.9
		c-0.5,0-0.9,0-1.3,0c-0.3,0-0.4,0.1-0.4,0.4c0,0.7,0,1.3,0,2c0,0.3,0.1,0.5,0.4,0.5c0.7,0,1.5,0,2.2,0c0.4,0,0.8-0.1,1.1-0.3
		c0.5-0.3,0.8-0.7,0.7-1.2c0-0.6-0.4-1-1-1.2C87.9,61.9,87.3,61.9,86.8,61.9z"/>
	<path class="st0" d="M121.1,67.4c0.3,1.7,2,2.4,3.4,1.7c0.2-0.1,0.4-0.2,0.6-0.4c0.3-0.3,0.5-0.2,0.7,0c0.7,0.5,0.7,0.7,0,1.2
		c-2,1.6-5.5,0.9-6.3-1.9c-0.6-2.3,0.3-4.4,2.4-5.1c2.1-0.7,4.2,0.3,4.8,2.8c0.1,0.3,0.2,0.7,0.1,1.1c0,0.6,0,0.6-0.6,0.6
		c-1.5,0-3,0-4.6,0C121.5,67.4,121.3,67.4,121.1,67.4z M121,66.2c0.5,0,0.9,0,1.3,0c0.8,0,1.5,0,2.3,0c0.2,0,0.4,0,0.3-0.2
		c-0.2-1.5-1.7-2.1-2.7-1.7C121.6,64.6,121.2,65.3,121,66.2z"/>
	<path class="st0" d="M97.9,69.6c-0.3,0.3-0.6,0.6-0.9,0.8c-1,0.6-1.9,0.6-2.9,0c-0.9-0.5-1.2-1.4-1.3-2.3c0-1.6,0-3.2,0-4.8
		c0-0.4,0.1-0.5,0.5-0.5c1.5,0,1.3-0.2,1.3,1.2c0,1.1,0,2.3,0,3.4c0,0.8,0.4,1.4,1,1.6c0.7,0.2,1.5,0,2-0.6c0.3-0.4,0.4-0.9,0.4-1.3
		c0-1.3,0-2.6,0-3.9c0-0.4,0.1-0.5,0.5-0.5c1.3,0,1.3,0,1.3,1.2c0,2,0,4,0,6c0,0.6,0,0.6-0.6,0.6c-0.1,0-0.1,0-0.2,0
		C98,70.7,98,70.7,97.9,69.6z"/>
	<path class="st0" d="M113.2,63.8c0.2,0,0.3-0.2,0.4-0.3c0.9-0.8,1.9-1,3-0.6c1.1,0.4,1.6,1.3,1.7,2.4c0,1.6,0,3.2,0,4.8
		c0,0.4-0.2,0.5-0.5,0.5c-1.3,0-1.3,0-1.3-1.2c0-1.1,0-2.2,0-3.3c0-1.1-0.6-1.8-1.6-1.8c-1,0-1.7,0.6-1.8,1.7c0,1.3,0,2.6,0,3.9
		c0,0.7,0,0.7-0.7,0.7c-1.1,0-1.1,0-1.1-1.1c0-2,0-4,0-6c0-0.8-0.1-0.8,0.7-0.8C113.1,62.8,113.1,62.8,113.2,63.8z"/>
	<path class="st0" d="M130.5,70.8c-1,0-2-0.3-2.9-0.9c-0.3-0.2-0.4-0.4-0.1-0.7c0.1-0.1,0.1-0.2,0.2-0.3c0.2-0.4,0.3-0.5,0.8-0.2
		c0.7,0.4,1.4,0.7,2.2,0.7c0.2,0,0.5-0.1,0.7-0.2c0.5-0.3,0.5-0.9,0.1-1.2c-0.3-0.2-0.6-0.3-0.9-0.4c-0.7-0.2-1.5-0.4-2.2-0.9
		c-1.2-0.9-0.8-2.7,0.2-3.3c1-0.7,2-0.7,3.1-0.4c0.4,0.1,0.9,0.3,1.2,0.5c0.3,0.2,0.3,0.3,0.2,0.6c-0.5,0.8-0.5,0.8-1.3,0.4
		c-0.6-0.3-1.2-0.3-1.8-0.2c-0.3,0-0.6,0.2-0.6,0.6c-0.1,0.3,0.1,0.6,0.4,0.8c0.4,0.2,0.8,0.4,1.2,0.5c0.6,0.1,1.1,0.4,1.5,0.6
		c1.5,0.9,1.1,2.9,0.1,3.6C131.9,70.6,131.3,70.9,130.5,70.8z"/>
	<path class="st0" d="M103.9,70.8c-1.1,0-2-0.4-2.9-0.9c-0.3-0.2-0.4-0.3-0.1-0.7c0.5-0.7,0.5-0.8,1.3-0.3c0.6,0.3,1.2,0.6,2,0.5
		c0.3,0,0.6-0.1,0.8-0.3c0.3-0.3,0.3-0.8,0-1.1c-0.3-0.2-0.6-0.4-0.9-0.4c-0.6-0.1-1.2-0.3-1.7-0.6c-0.9-0.4-1.3-1.1-1.2-2.1
		c0.1-0.9,0.6-1.5,1.4-1.9c1.1-0.5,2.2-0.2,3.2,0.2c0.1,0,0.2,0.1,0.3,0.2c0.6,0.3,0.6,0.3,0.2,0.8c-0.4,0.7-0.4,0.7-1.1,0.3
		c-0.6-0.3-1.2-0.3-1.8-0.3c-0.3,0-0.6,0.1-0.6,0.4c-0.1,0.3,0,0.6,0.3,0.9c0.4,0.3,0.9,0.4,1.4,0.5c0.6,0.2,1.1,0.4,1.6,0.7
		c1.2,0.7,1,2.8,0,3.4C105.3,70.6,104.7,70.8,103.9,70.8z"/>
	<path class="st0" d="M137.1,70.8c-1-0.1-2-0.4-2.8-0.9c-0.3-0.2-0.3-0.4-0.1-0.7c0.5-0.7,0.4-0.7,1.2-0.3c0.6,0.3,1.2,0.6,1.9,0.5
		c0.2,0,0.4-0.1,0.6-0.1c0.3-0.1,0.5-0.3,0.5-0.7c0-0.3-0.1-0.5-0.4-0.7c-0.3-0.1-0.5-0.3-0.8-0.3c-0.7-0.2-1.4-0.4-2-0.8
		c-1.4-0.8-1-2.9,0.1-3.6c1.6-0.9,3-0.5,4.4,0.3c0.1,0,0.1,0.1,0.1,0.1c0,0.4-0.3,0.7-0.5,1c-0.1,0.3-0.4,0.2-0.6,0.1
		c-0.6-0.3-1.2-0.6-1.8-0.5c-0.1,0-0.3,0-0.4,0c-0.3,0.1-0.6,0.2-0.7,0.6c-0.1,0.4,0.2,0.6,0.4,0.7c0.4,0.3,0.9,0.4,1.3,0.5
		c0.6,0.2,1.1,0.4,1.6,0.7c1.1,0.6,1.1,2.8,0,3.4C138.5,70.6,137.9,70.8,137.1,70.8z"/>
	<path class="st0" d="M108.9,62.8c0.1,0,0.2,0,0.3,0c0.5,0,0.5,0.1,0.5,0.6c0,2.3-0.1,4.5,0,6.8c0,0.4-0.1,0.5-0.5,0.5
		c-1.3,0-1.3,0-1.3-1.2c0-1.9,0-3.8,0-5.7C108,62.7,107.9,62.9,108.9,62.8z"/>
	<path class="st0" d="M108.8,61.7c-0.9,0-0.9,0-0.9-0.9c0-0.1,0-0.3,0-0.4c0-0.2,0.1-0.4,0.3-0.4c0.4,0,0.9,0,1.3,0
		c0.2,0,0.3,0.1,0.3,0.3c0,0.1,0,0.2,0,0.3C109.8,61.7,109.8,61.7,108.8,61.7z"/>
</g>
</svg>
