<?xml version="1.0" encoding="utf-8"?>
<!-- Generator: Adobe Illustrator 20.1.0, SVG Export Plug-In . SVG Version: 6.00 Build 0)  -->
<svg version="1.1" id="Layer_1" xmlns="http://www.w3.org/2000/svg" xmlns:xlink="http://www.w3.org/1999/xlink" x="0px" y="0px"
	 viewBox="0 0 150 150" style="enable-background:new 0 0 150 150;" xml:space="preserve">
<style type="text/css">
	.st0{fill:#EBCC3C;}
	.st1{fill:#2F8BC4;}
</style>
<g>
	<polygon points="118.8,75.8 121,75.8 121,73.5 118.8,73.5 	"/>
	<path d="M58.1,86.8V80h-5V82h2.7c0,0.6,0,0.9-0.3,1.4C55,84.5,54.1,85,52.9,85c-2,0-3.2-1.7-3.2-5c0-1.7,0.3-2.7,0.9-3.6
		c0.6-0.7,1.3-1.1,2.2-1.1c0.8,0,1.7,0.4,2.1,1c0.3,0.4,0.4,0.6,0.6,1.4l2-0.4c-0.3-1.1-0.6-1.7-1.1-2.3c-0.9-1.1-2.1-1.7-3.8-1.7
		c-1.8,0-3.2,0.7-4.2,2c-0.9,1.2-1.5,3-1.5,4.7c0,1.8,0.5,3.5,1.4,4.8c0.9,1.4,2.2,2,4,2c1.6,0,2.7-0.7,3.5-2l0.7,1.8L58.1,86.8
		L58.1,86.8z"/>
	<path d="M64.7,79.1L64.7,79.1l0.1-2.4c-1.4-0.1-2.5,0.9-3,2.6V77h-2v9.8H62v-4.6c0-1.8,1-3.1,2.2-3.2L64.7,79.1L64.7,79.1z"/>
	<path d="M71.8,83.6c-0.5,1.1-1.1,1.6-2.2,1.6c-1.5,0-2.3-1-2.3-2.8v-0.3h6.7c0-3.4-1.6-5.4-4.4-5.4c-2.8,0-4.5,2-4.5,5.1
		c0,3.1,1.8,5,4.5,5c2.1,0,3.7-1.1,4.4-3.1L71.8,83.6L71.8,83.6z M69.4,78.3c0.7,0,1.3,0.3,1.7,0.8c0.4,0.5,0.5,0.8,0.5,1.5h-4.5
		C67.4,79.2,68.2,78.3,69.4,78.3L69.4,78.3z"/>
	<path d="M81.4,86.8h2.1c-0.2-0.7-0.3-1.3-0.3-1.9v-4.4c0-1.4-0.1-2-0.7-2.5c-0.6-0.7-1.7-1.1-3.3-1.1c-1.4,0-2.3,0.2-3.2,0.7
		c-0.7,0.6-1.1,1.1-1.3,2l1.9,0.3c0.3-1,0.9-1.5,2.2-1.5c1.4,0,2,0.5,2,1.5v0.6c-1.8,0-2.7,0.1-3.7,0.4c-1.9,0.5-2.8,1.5-2.8,3.1
		c0,1.8,1.3,3,3.2,3c1.6,0,2.6-0.7,3.3-2.1C81.1,85.6,81.1,86.1,81.4,86.8L81.4,86.8z M78.4,85.3c-1.1,0-1.8-0.6-1.8-1.5
		c0-1.4,1.5-2,4.3-2v0.9C81,84.3,80,85.3,78.4,85.3L78.4,85.3z"/>
	<path d="M86,86.2c0.5,0.5,1.2,0.7,2,0.7c0.3,0,0.9-0.1,1.6-0.2V85c-0.3,0-0.5,0-0.6,0c-1.2,0-1.6-0.4-1.6-1.6v-4.7h2v-1.8h-2v-2.7
		l-1.8,0.2l-0.2,2.5h-1.4v1.8h1.1v5C85.2,85.1,85.4,85.7,86,86.2L86,86.2z"/>
	<path d="M103.9,77.5c0-1.4-0.6-2.6-1.8-3.3c-0.8-0.5-1.5-0.6-2.8-0.6h-5.4v13.2h2.4v-5.2h3.3C102.1,81.5,103.9,79.8,103.9,77.5
		L103.9,77.5z M99.1,79.5h-2.8v-4h2.6c0.9,0,1.5,0.2,1.9,0.6c0.4,0.3,0.6,0.9,0.6,1.5C101.4,78.7,100.5,79.5,99.1,79.5L99.1,79.5z"
		/>
	<polygon points="104.8,86.8 107,86.8 107,73.5 104.8,73.5 	"/>
	<path d="M111.1,80.9c-1.9,0.5-2.8,1.5-2.8,3.1c0,1.8,1.3,3,3.2,3c1.6,0,2.6-0.7,3.3-2.1c0.1,0.8,0.1,1.3,0.4,1.9h2.1
		c-0.2-0.7-0.3-1.3-0.3-1.9v-4.4c0-1.4-0.1-2-0.6-2.5c-0.7-0.7-1.7-1.1-3.3-1.1c-1.4,0-2.3,0.2-3.2,0.7c-0.7,0.6-1.1,1.1-1.3,2
		l1.9,0.3c0.3-1,0.9-1.5,2.2-1.5c1.4,0,2,0.5,2,1.5v0.6C113.1,80.6,112.1,80.7,111.1,80.9L111.1,80.9z M114.8,82.7
		c0,1.6-1,2.6-2.6,2.6c-1.1,0-1.8-0.6-1.8-1.5c0-1.4,1.5-2,4.3-2L114.8,82.7L114.8,82.7z"/>
	<polygon points="118.8,86.8 121,86.8 121,76.9 118.8,76.9 	"/>
	<path d="M128.8,86.8h2.2v-6.3c0-1-0.1-1.7-0.4-2.2c-0.5-0.8-1.6-1.5-2.7-1.5c-1.3,0-2.1,0.6-3,2.4v-2.2h-2v9.8h2.2v-5
		c0-0.7,0.1-1.3,0.4-1.9c0.4-0.7,1.1-1.2,1.8-1.2c0.9,0,1.5,0.7,1.5,1.9V86.8L128.8,86.8z"/>
	<path d="M140,83.8c0-1.6-0.8-2.5-2.4-2.8l-2.1-0.5c-1-0.2-1.4-0.6-1.4-1.1c0-0.6,0.7-1,1.8-1c1,0,1.5,0.3,1.8,1.1l2-0.4
		c-0.5-1.5-1.8-2.2-3.8-2.2c-1.4,0-2.3,0.4-3,1.1c-0.5,0.6-0.7,1.3-0.7,2c0,1.6,0.9,2.5,3,2.9l1.8,0.4c0.6,0.1,1.1,0.5,1.1,0.9
		c0,0.7-0.7,1.2-2,1.2c-1.2,0-1.8-0.3-2.1-1.2l-2,0.4c0.3,0.7,0.5,1.1,1,1.5c0.8,0.6,1.9,0.9,3.2,0.9C138.3,87,140,85.8,140,83.8
		L140,83.8z"/>
	<polygon points="49.5,65.4 52,72 52.6,72 55,65.4 55,72 56,72 56,64.4 54.6,64.4 52.3,70.4 50.1,64.4 48.6,64.4 48.6,72 49.5,72 	
		"/>
	<polygon points="57.7,65.4 58.7,65.4 58.7,64.4 57.7,64.4 	"/>
	<polygon points="57.7,72 58.7,72 58.7,66.4 57.7,66.4 	"/>
	<path d="M62.3,72.1c0.6,0,1.1-0.2,1.5-0.6c0.4-0.4,0.6-0.6,0.7-1.4l-0.7-0.1c-0.2,0.9-0.7,1.4-1.4,1.4c-0.9,0-1.5-0.8-1.5-2.2
		c0-1.4,0.6-2.2,1.5-2.2c0.5,0,0.8,0.2,1,0.6c0.2,0.2,0.2,0.5,0.3,0.8l0.7-0.2c-0.2-1.3-0.9-2-2.1-2c-1.5,0-2.4,1.2-2.4,3
		C60,71,60.9,72.1,62.3,72.1L62.3,72.1z"/>
	<path d="M66.5,69.1c0-1.2,0.8-2,1.9-2v-0.8c-0.1,0-0.3,0-0.3,0c-0.5,0-0.8,0.2-1.1,0.5c-0.2,0.3-0.3,0.5-0.6,0.9v-1.3h-0.7v5.6h0.8
		V69.1L66.5,69.1z"/>
	<path d="M76.9,71.4c-0.6,0-1-0.2-1.4-0.5c-0.2-0.2-0.3-0.3-0.4-0.6l-0.8,0.2c0.1,0.5,0.3,0.7,0.6,0.9c0.5,0.5,1.1,0.6,1.9,0.6
		c1.4,0,2.3-0.6,2.3-1.7c0-0.9-0.6-1.5-1.7-1.7l-1.1-0.2c-0.6-0.1-0.8-0.4-0.8-0.7c0-0.5,0.5-0.8,1.2-0.8s1.2,0.3,1.4,0.8l0.8-0.2
		c-0.3-0.9-1-1.4-2.2-1.4c-1.3,0-2.1,0.6-2.1,1.7c0,0.8,0.6,1.4,1.5,1.6l1.2,0.2c0.6,0.1,0.9,0.4,0.9,0.8
		C78.2,71.1,77.6,71.4,76.9,71.4L76.9,71.4z"/>
	<path d="M71.3,66.3c-1.5,0-2.5,1.2-2.5,2.9c0,1.8,0.9,3,2.4,3c1.5,0,2.6-1.2,2.6-2.9C73.8,67.5,72.8,66.3,71.3,66.3L71.3,66.3z
		 M71.3,71.4c-1,0-1.6-0.8-1.6-2.2c0-0.6,0.1-1.2,0.4-1.6c0.3-0.4,0.7-0.6,1.1-0.6c0.5,0,0.9,0.2,1.2,0.6c0.3,0.4,0.4,0.9,0.4,1.7
		C72.8,70.6,72.2,71.4,71.3,71.4L71.3,71.4z"/>
	<path d="M82.3,72.1c1.5,0,2.6-1.2,2.6-2.9c0-1.9-0.9-3-2.5-3c-1.5,0-2.5,1.2-2.5,2.9C79.8,70.9,80.9,72.1,82.3,72.1L82.3,72.1z
		 M81.2,67.6c0.3-0.4,0.7-0.6,1.1-0.6c0.5,0,0.9,0.2,1.2,0.6c0.3,0.4,0.4,0.9,0.4,1.7c0,1.4-0.6,2.2-1.6,2.2c-1,0-1.6-0.8-1.6-2.2
		C80.9,68.5,80.9,67.9,81.2,67.6L81.2,67.6z"/>
	<path d="M86.3,72h0.8v-4.9h1.4v-0.6h-1.4c0-0.6,0-0.6,0.1-0.9c0.1-0.4,0.5-0.6,1-0.6c0.2,0,0.3,0,0.6,0.1v-0.7
		c-0.4-0.1-0.6-0.1-0.8-0.1c-0.7,0-1.3,0.4-1.5,0.9c-0.1,0.4-0.2,0.6-0.2,1.2h-1V67h1V72L86.3,72z"/>
	<path d="M90,70.4c0,1.1,0.6,1.7,1.6,1.7c0.3,0,0.5,0,0.8-0.1v-0.6c-0.3,0.1-0.5,0.1-0.6,0.1c-0.6,0-0.9-0.3-0.9-0.8v-3.5h1.3v-0.6
		h-1.3V65L90,65.1v1.4h-1v0.6h1V70.4L90,70.4z"/>
	<path d="M93.3,66.8h0.3l0.2,0.5h0.2l-0.3-0.6c0.1-0.1,0.2-0.2,0.2-0.3c0-0.2-0.2-0.3-0.4-0.3H93v1.1h0.2L93.3,66.8L93.3,66.8z
		 M93.3,66.4h0.3c0.1,0,0.2,0.1,0.2,0.2s-0.1,0.2-0.2,0.2h-0.3V66.4L93.3,66.4z"/>
	<path d="M93.6,67.8c0.6,0,0.9-0.5,0.9-1c0-0.6-0.5-0.9-0.9-0.9c-0.6,0-1,0.5-1,0.9C92.6,67.3,93,67.8,93.6,67.8L93.6,67.8z
		 M92.9,66.2c0.2-0.2,0.4-0.3,0.6-0.3c0.5,0,0.8,0.4,0.8,0.8s-0.4,0.8-0.8,0.8s-0.8-0.4-0.8-0.8C92.7,66.6,92.8,66.4,92.9,66.2
		L92.9,66.2z"/>
	<path class="st0" d="M14.4,91.8h29.3V73.1c-1.1-0.1-2.2-0.3-3.4-0.3C30.2,72.9,19.4,78.5,14.4,91.8L14.4,91.8z"/>
	<path class="st1" d="M10,88.1h0.3c2.6-11.4,10.3-23,18.7-29.2v0.8c-3.2,2.5-12.8,12.9-16.2,28.4h0.4c3.7-11,9.4-19.1,17-24.2v0.8
		c-4.7,4.1-9.1,9.6-12.4,16.8h0.2c4.6-5.8,12.4-9.6,20.8-9.6c1.7,0,3.3,0.2,4.9,0.5V58.2H10V88.1L10,88.1z"/>
</g>
</svg>
