<?xml version="1.0" encoding="utf-8"?>
<!-- Generator: Adobe Illustrator 20.1.0, SVG Export Plug-In . SVG Version: 6.00 Build 0)  -->
<svg version="1.1" id="Layer_1" xmlns="http://www.w3.org/2000/svg" xmlns:xlink="http://www.w3.org/1999/xlink" x="0px" y="0px"
	 viewBox="0 0 150 150" style="enable-background:new 0 0 150 150;" xml:space="preserve">
<style type="text/css">
	.st0{fill:#205080;}
</style>
<g>
	<g>
		<path class="st0" d="M75.9,63c0-0.5-0.4-0.9-0.9-0.9h-5.6c-0.5,0-0.9,0.4-0.9,0.9v34.4c0,0.5,0.4,0.9,0.9,0.9H75
			c0.5,0,0.9-0.4,0.9-0.9V63z"/>
		<path class="st0" d="M110.9,96.4l-7.6-11.2c3.3-1.4,5.2-4.3,5.2-8.7v-4.6c0-6.9-3.9-9.8-11.9-9.8H82.6c-0.5,0-0.2,0.4-0.2,0.8V97
			c0,0.5-0.3,1.3,0.2,1.3h5.6c0.5,0,0.7-0.7,0.7-1.3V86.2h5.9l7.8,11.4c0.2,0.3,0.5,0.7,0.7,0.7h6.7l0,0c0.5,0,0.9-0.6,0.9-1.1
			C111.1,97,111,96.6,110.9,96.4z M88.9,68.5h7.3c3.7,0,3.8,1.5,3.8,3.9V76c0,2.9-0.6,3.8-3.8,3.8h-7.3V68.5z"/>
	</g>
	<path class="st0" d="M129.3,62.7c-0.1-0.4-0.5-0.7-0.8-0.7h-8.5c-0.4,0-0.7,0.2-0.8,0.7l-10.8,34.1c-0.1,0.3,0,0.7,0.1,1
		c0.2,0.3,0.5,0.6,0.7,0.6h5.9c0.4,0,0.7-0.5,0.8-0.8l7.4-25.2c0,0,0.2-0.7,0.8-0.7s0.8,0.7,0.8,0.7l3.4,12h-4.7
		c-0.4,0-0.7,0.2-0.8,0.6l-1.3,4.6c-0.1,0.3,0,0.7,0.2,0.8c0.2,0.2,0.5,0.5,0.7,0.5h8l2,6.7c0.1,0.4,0.5,0.7,0.8,0.7h5.9
		c0.3,0,0.6-0.3,0.7-0.6c0.2-0.3,0.2-0.7,0.1-0.9L129.3,62.7z"/>
	<path class="st0" d="M61.8,62h-5.7c-0.5,0-0.6,0.4-0.6,0.8v26.7c0,3.3-2.7,4.5-4.5,4.6c-0.3,0-0.6,0.2-0.7,0.4
		c-0.2,0.2-0.2,0.5-0.2,0.7l1.4,4.5c0.1,0.4,0.2,0.6,0.8,0.6c5.4,0,9.6-4.3,9.6-9.9V62.9c0-0.2,0.2-0.5,0.1-0.6
		C61.9,62.1,62,62,61.8,62z"/>
	<g>
		<g>
			<g>
				<g>
					<path class="st0" d="M17.8,52.7c-1.8,0-3.2,1.4-3.2,3.2c0,1.8,1.4,3.2,3.2,3.2c1.8,0,3.2-1.4,3.2-3.2
						C21,54.1,19.6,52.7,17.8,52.7L17.8,52.7L17.8,52.7z"/>
				</g>
			</g>
			<g>
				<g>
					<path class="st0" d="M38.6,52.7c-1.8,0-3.2,1.4-3.2,3.2c0,1.8,1.4,3.2,3.2,3.2c1.8,0,3.2-1.4,3.2-3.2
						C41.8,54.1,40.3,52.7,38.6,52.7L38.6,52.7L38.6,52.7z"/>
				</g>
			</g>
		</g>
		<g>
			<g>
				<path class="st0" d="M28.2,49.8c-1.8,0-3.2,1.4-3.2,3.2s1.4,3.2,3.2,3.2s3.2-1.4,3.2-3.2S30,49.8,28.2,49.8L28.2,49.8L28.2,49.8
					z"/>
			</g>
		</g>
	</g>
	<g>
		<path class="st0" d="M46,61.5c-0.2-0.1-0.4-0.2-0.6-0.2c-0.1,0-0.3,0-0.4,0.1c-2.1,0.8-4.3,1.4-6.3,1.9C38.4,63.3,38,63.6,38,64
			c-1.5,4-5.1,7.7-9,11.6c-0.2,0.2-0.4,0.4-0.7,0.4s-0.6-0.2-0.7-0.4c-3.9-3.9-7.5-7.7-9-11.6c-0.1-0.4-0.5-0.7-0.8-0.7
			c-2-0.5-4.2-1.1-6.3-2c-0.1,0-0.3-0.1-0.4-0.1c-0.2,0-0.5,0.1-0.6,0.2C10.1,61.7,10,62,10,62.3c0.4,3.3,1.7,6.5,4,9.8
			c2.2,3.2,5.1,6.1,7.9,8.9c5.1,5.2,9.9,10.3,10.4,16.1c0,0.6,0.5,1.1,1,1.1h6c0.3,0,0.6-0.3,0.7-0.5c0.2-0.2,0.3-0.6,0.3-0.8
			c-0.2-3.8-1.7-7.7-4.4-11.7c-0.6-0.8-1.2-1.7-1.9-2.5c-0.3-0.4-0.2-0.7,0.1-0.9c0.2-0.2,0.4-0.4,0.6-0.7c2.8-2.9,5.7-5.8,7.9-8.9
			c2.3-3.3,3.6-6.6,4-9.8C46.4,62,46.3,61.7,46,61.5z"/>
		<g>
			<path class="st0" d="M21.8,85.5c-0.2-0.2-0.4-0.3-0.7-0.3c-0.5,0-0.7,0.3-0.8,0.5c-2.5,3.8-3.8,7.5-4,11.1c0,0.3,0.1,0.7,0.3,0.9
				c0.2,0.2,0.5,0.5,0.7,0.5h6c0.6,0,0.9-0.6,1-1.1c0.1-1.8,0.7-3.6,1.7-5.5c0.4-0.7,0.1-1.3-0.1-1.6C24.8,88.9,23.6,87.5,21.8,85.5
				z"/>
		</g>
		<path class="st0" d="M28.2,64.8c1.9,0,3-0.3,3.3-0.3c0.5,0,0.9,0.3,0.9,0.8c0,0.2,0,0.2-0.1,0.3c-0.3,0.7-1.4,2.8-3.5,4.8
			c-0.3,0.2-0.5-0.1-0.7-0.1l0,0c-0.2,0-0.5,0.3-0.7,0c-2.1-2-3.3-4.3-3.5-5c0-0.1-0.1-0.1-0.1-0.3c0-0.6,0.5-0.7,0.9-0.7
			C25.2,64.5,26.3,64.8,28.2,64.8L28.2,64.8z"/>
	</g>
</g>
</svg>
