<?xml version="1.0" encoding="utf-8"?>
<!-- Generator: Adobe Illustrator 20.1.0, SVG Export Plug-In . SVG Version: 6.00 Build 0)  -->
<svg version="1.1" id="Layer_1" xmlns="http://www.w3.org/2000/svg" xmlns:xlink="http://www.w3.org/1999/xlink" x="0px" y="0px"
	 viewBox="0 0 150 150" style="enable-background:new 0 0 150 150;" xml:space="preserve">
<style type="text/css">
	.st0{fill:#00467F;}
	.st1{fill:#B9C7D4;}
</style>
<g>
	<polygon points="53.8,83.3 50.9,83.3 50.9,69.8 54.7,69.8 59.1,77.6 59.1,69.8 62,69.8 62,83.3 58.9,83.3 53.8,74.1 	"/>
	<path d="M64.6,69.8"/>
	<polygon points="73.4,69.8 64.5,69.8 64.5,83.3 73.4,83.3 73.4,80.7 67.7,80.7 67.7,77.4 73,77.4 73,74.7 67.7,74.7 67.7,72.5 
		73.4,72.5 	"/>
	<path d="M75.2,69.8h10.7v2.7h-3.8v10.9H79V72.5c0,0-3.3,0-3.8,0C75.2,72.3,75.2,69.8,75.2,69.8z"/>
	<path d="M79,72.5c0,0-3.7,0-3.8,0"/>
	<g>
		<path d="M87.9,80.2c0.8,0.4,2,1.6,4,1.8c2.5,0.3,3.5-1.1,3.6-2.2c0.2-1.7-1.3-2.1-3.5-2.5c-2.4-0.5-4-0.9-4.2-3.8
			c-0.2-2.2,1.7-4.1,5.3-4c1.4,0.1,2.8,0.5,3.6,0.9l0,2.1c-0.5-0.3-1.8-1.4-4.2-1.5c-1.8-0.1-2.9,1.1-2.9,2.1c0,2.3,1.9,2,3.7,2.5
			c2.6,0.7,4,1.3,3.9,3.9c0,2.4-2.2,4-5.3,4c-1.5,0-3.1-0.5-4-1.1L87.9,80.2L87.9,80.2z"/>
	</g>
	<g>
		<path d="M102.1,69.8v8.1c0,3,1.3,4.3,3,4.3c1.9,0,3.1-1.3,3.1-4.3v-8.1h1.7v7.9c0,4.2-2.1,5.9-4.9,5.9c-2.6,0-4.6-1.6-4.6-5.8v-8
			L102.1,69.8L102.1,69.8z"/>
	</g>
	<rect x="114.8" y="69.8" width="1.6" height="13.5"/>
	<polygon points="119.2,69.8 129.6,69.8 129.6,71.4 125.2,71.4 125.2,83.3 123.6,83.3 123.6,71.4 119.2,71.4 	"/>
	<polygon points="140,69.8 132.1,69.8 132.1,83.3 140,83.3 140,81.8 133.6,81.8 133.6,76.7 140,76.7 140,75.1 133.6,75.1 
		133.6,71.4 140,71.4 	"/>
	<g>
		<path class="st0" d="M10,58.8c7,0,14.1,0,21,0c0,6,0,12.1,0,18c-8.2-10.4,0,0-8.2-10.4c-4.3,0-8.6,0-12.8,0C10,64,10,58.9,10,58.8
			z"/>
		<path class="st0" d="M22.8,73.3c2.7,3.4,5.4,6.9,8.1,10.3c4.3,0,8.6,0,12.9,0c0,2.5,0,5.1,0,7.6c-7,0-14,0-21,0
			C22.8,85.2,22.8,79.3,22.8,73.3z"/>
		<path class="st1" d="M32.4,66.4c0-2,0-4,0-6.1c3.3,0,6.6,0,9.9,0c0,7.3,0,14.6,0,21.9c-2.2,0-4.4,0-6.6,0c0-5.3,0-10.6,0-15.8
			C34.6,66.4,32.4,66.4,32.4,66.4z"/>
		<path class="st1" d="M18.2,67.7c0,5.2,0,10.5,0,15.7c1,0,2.2,0,3.3,0c0,2.1,0,4.1,0,6.2c-3.3,0-6.6,0-9.9,0c0-7.3,0-14.6,0-21.9
			C13.8,67.7,16,67.7,18.2,67.7z"/>
	</g>
</g>
</svg>
