<?xml version="1.0" encoding="utf-8"?>
<!-- Generator: Adobe Illustrator 20.1.0, SVG Export Plug-In . SVG Version: 6.00 Build 0)  -->
<svg version="1.1" id="Layer_1" xmlns="http://www.w3.org/2000/svg" xmlns:xlink="http://www.w3.org/1999/xlink" x="0px" y="0px"
	 viewBox="0 0 150 150" style="enable-background:new 0 0 150 150;" xml:space="preserve">
<style type="text/css">
	.st0{fill:#2CA01C;}
	.st1{fill:#FFFFFF;}
</style>
<g>
	<path class="st0" d="M140,75c0,35.9-29.1,65-65,65s-65-29.1-65-65s29.1-65,65-65S140,39.1,140,75"/>
	<path class="st1" d="M72.1,113.4H63V58.1h-8.1c-9.3,0-16.8,7.5-16.8,16.8c0,9.3,7.5,16.8,16.8,16.8h2.4v9.1h-2.4
		c-14.3-0.3-25.7-12-25.4-26.3c0.2-13.9,11.5-25.2,25.4-25.4h17.2L72.1,113.4z"/>
	<path class="st1" d="M95.1,100.8H77.8V36.5h9.1v55.2h8.1c9.3,0,16.8-7.5,16.8-16.8c0-9.3-7.5-16.8-16.8-16.8h-2.4v-9.1h2.4
		c14.3,0.3,25.7,12,25.4,26.3C120.3,89.3,109,100.6,95.1,100.8"/>
</g>
</svg>
