<?xml version="1.0" encoding="utf-8"?>
<!-- Generator: Adobe Illustrator 20.1.0, SVG Export Plug-In . SVG Version: 6.00 Build 0)  -->
<svg version="1.1" id="Layer_1" xmlns="http://www.w3.org/2000/svg" xmlns:xlink="http://www.w3.org/1999/xlink" x="0px" y="0px"
	 viewBox="0 0 150 150" style="enable-background:new 0 0 150 150;" xml:space="preserve">
<style type="text/css">
	.st0{fill:#0F9BD7;}
	.st1{fill:#FFFFFF;}
</style>
<g>
	<path class="st0" d="M64.1,39.4c4.2-4.4,10-7.1,16.5-7.1c8.6,0,16.1,4.8,20.1,11.9c3.5-1.5,7.3-2.4,11.3-2.4
		c15.5,0,28,12.7,28,28.3s-12.5,28.3-28,28.3c-1.9,0-3.7-0.2-5.5-0.6c-3.5,6.3-10.2,10.5-17.9,10.5c-3.2,0-6.3-0.7-9-2.1
		c-3.6,8.4-11.9,14.2-21.5,14.2c-10.1,0-18.6-6.4-21.9-15.3c-1.4,0.3-2.9,0.5-4.5,0.5c-12,0-21.7-9.8-21.7-21.9
		c0-8.1,4.4-15.2,10.8-19c-1.3-3.1-2.1-6.5-2.1-10c0-13.9,11.3-25.2,25.2-25.2C52.2,29.5,59.5,33.4,64.1,39.4"/>
	<path class="st1" d="M28.8,76.7c-0.1,0.2,0,0.3,0.1,0.3c0.2,0.2,0.5,0.3,0.7,0.4c1.3,0.7,2.6,0.9,3.9,0.9c2.7,0,4.3-1.4,4.3-3.7v0
		c0-2.1-1.9-2.9-3.6-3.4L34,71.1c-1.3-0.4-2.5-0.8-2.5-1.7v0c0-0.7,0.7-1.3,1.7-1.3c1.2,0,2.5,0.4,3.4,0.9c0,0,0.3,0.2,0.4-0.1
		c0.1-0.1,0.5-1.3,0.5-1.5c0-0.1,0-0.2-0.1-0.3c-1-0.6-2.4-1-3.8-1h-0.3c-2.4,0-4.1,1.5-4.1,3.6v0c0,2.2,1.9,3,3.6,3.5l0.3,0.1
		c1.3,0.4,2.4,0.7,2.4,1.6v0c0,0.8-0.7,1.4-1.9,1.4c-0.4,0-1.9,0-3.4-1c-0.2-0.1-0.3-0.2-0.4-0.3c-0.1,0-0.3-0.1-0.4,0.1L28.8,76.7z
		"/>
	<path class="st1" d="M67.9,76.7c-0.1,0.2,0,0.3,0.1,0.3c0.2,0.2,0.5,0.3,0.7,0.4c1.3,0.7,2.6,0.9,3.9,0.9c2.7,0,4.3-1.4,4.3-3.7v0
		c0-2.1-1.9-2.9-3.6-3.4L73,71.1c-1.3-0.4-2.5-0.8-2.5-1.7v0c0-0.7,0.7-1.3,1.7-1.3c1.2,0,2.5,0.4,3.4,0.9c0,0,0.3,0.2,0.4-0.1
		c0.1-0.1,0.5-1.3,0.5-1.5c0-0.1,0-0.2-0.1-0.3c-1-0.6-2.4-1-3.8-1h-0.3c-2.4,0-4.1,1.5-4.1,3.6v0c0,2.2,1.9,3,3.6,3.5l0.3,0.1
		c1.3,0.4,2.4,0.7,2.4,1.6v0c0,0.8-0.7,1.4-1.9,1.4c-0.4,0-1.9,0-3.4-1c-0.2-0.1-0.3-0.2-0.4-0.3c0,0-0.3-0.1-0.3,0.1L67.9,76.7z"/>
	<path class="st1" d="M96.7,69.8c-0.2-0.7-0.6-1.4-1-1.9c-0.5-0.5-1-1-1.7-1.3c-0.7-0.3-1.5-0.5-2.4-0.5c-0.9,0-1.7,0.2-2.4,0.5
		c-0.7,0.3-1.3,0.8-1.7,1.3c-0.5,0.5-0.8,1.2-1,1.9c-0.2,0.7-0.3,1.5-0.3,2.4c0,0.9,0.1,1.7,0.3,2.4c0.2,0.7,0.6,1.4,1,1.9
		c0.5,0.5,1,1,1.7,1.3c0.7,0.3,1.5,0.5,2.4,0.5c0.9,0,1.7-0.2,2.4-0.5c0.7-0.3,1.3-0.7,1.7-1.3c0.5-0.5,0.8-1.2,1-1.9
		c0.2-0.7,0.3-1.5,0.3-2.4C97.1,71.4,97,70.6,96.7,69.8 M94.5,72.2c0,1.3-0.2,2.3-0.7,3c-0.5,0.7-1.2,1.1-2.2,1.1
		c-1,0-1.7-0.3-2.2-1.1c-0.5-0.7-0.7-1.7-0.7-3s0.2-2.3,0.7-3c0.5-0.7,1.2-1,2.2-1c1,0,1.7,0.3,2.2,1C94.3,69.9,94.5,70.9,94.5,72.2
		"/>
	<path class="st1" d="M115,76c-0.1-0.2-0.3-0.1-0.3-0.1c-0.3,0.1-0.7,0.2-1,0.3c-0.4,0.1-0.8,0.1-1.2,0.1c-1.1,0-1.9-0.3-2.5-1
		c-0.6-0.6-1-1.7-1-3c0-1.3,0.3-2.2,0.9-2.9c0.5-0.7,1.4-1.1,2.5-1.1c0.9,0,1.6,0.1,2.4,0.3c0,0,0.2,0.1,0.3-0.1
		c0.2-0.5,0.3-0.9,0.5-1.5c0.1-0.2-0.1-0.2-0.1-0.3c-0.3-0.1-1-0.3-1.5-0.4c-0.5-0.1-1-0.1-1.7-0.1c-0.9,0-1.8,0.2-2.5,0.5
		c-0.7,0.3-1.3,0.8-1.8,1.3c-0.5,0.5-0.8,1.2-1.1,1.9c-0.2,0.7-0.4,1.5-0.4,2.4c0,1.8,0.5,3.3,1.5,4.4c1,1.1,2.5,1.7,4.4,1.7
		c1.1,0,2.3-0.2,3.2-0.6c0,0,0.2-0.1,0.1-0.3L115,76z"/>
	<path class="st1" d="M126.4,69.4c-0.2-0.7-0.7-1.4-1-1.8c-0.5-0.5-1-0.9-1.4-1.1c-0.6-0.3-1.3-0.4-2.2-0.4c-0.9,0-1.8,0.2-2.5,0.5
		c-0.7,0.3-1.3,0.8-1.7,1.3c-0.5,0.6-0.8,1.2-1,2c-0.2,0.7-0.3,1.5-0.3,2.4c0,0.9,0.1,1.7,0.3,2.4c0.2,0.7,0.6,1.4,1.1,1.9
		c0.5,0.5,1.1,1,1.9,1.3c0.8,0.3,1.7,0.4,2.7,0.4c2.2,0,3.3-0.5,3.8-0.8c0.1,0,0.2-0.1,0.1-0.4l-0.5-1.4c-0.1-0.2-0.3-0.1-0.3-0.1
		c-0.5,0.2-1.3,0.6-3.1,0.6c-1.2,0-2-0.3-2.6-0.9c-0.6-0.6-0.8-1.4-0.9-2.5l7.5,0c0,0,0.2,0,0.2-0.2
		C126.6,72.6,126.9,71.1,126.4,69.4 M118.9,71c0.1-0.7,0.3-1.3,0.6-1.8c0.5-0.7,1.2-1.1,2.2-1.1c1,0,1.6,0.4,2.1,1.1
		c0.3,0.5,0.4,1.1,0.5,1.8L118.9,71z"/>
	<path class="st1" d="M66.1,69.4c-0.2-0.7-0.7-1.4-1-1.8c-0.5-0.5-1-0.9-1.4-1.1c-0.6-0.3-1.3-0.4-2.2-0.4c-0.9,0-1.8,0.2-2.5,0.5
		c-0.7,0.3-1.3,0.8-1.7,1.3c-0.5,0.6-0.8,1.2-1,2c-0.2,0.7-0.3,1.5-0.3,2.4c0,0.9,0.1,1.7,0.3,2.4c0.2,0.7,0.6,1.4,1.1,1.9
		s1.1,1,1.9,1.3c0.8,0.3,1.7,0.4,2.7,0.4c2.2,0,3.3-0.5,3.8-0.8c0.1,0,0.2-0.1,0.1-0.4l-0.5-1.4c-0.1-0.2-0.3-0.1-0.3-0.1
		c-0.5,0.2-1.3,0.6-3.1,0.6c-1.2,0-2-0.3-2.6-0.9c-0.6-0.6-0.8-1.4-0.9-2.5l7.5,0c0,0,0.2,0,0.2-0.2C66.3,72.6,66.5,71.1,66.1,69.4
		 M58.6,71c0.1-0.7,0.3-1.3,0.6-1.8c0.5-0.7,1.2-1.1,2.2-1.1s1.6,0.4,2.1,1.1c0.3,0.5,0.4,1.1,0.5,1.8L58.6,71z"/>
	<path class="st1" d="M45.3,70.6c-0.3,0-0.7,0-1.2,0c-0.6,0-1.3,0.1-1.9,0.2c-0.6,0.2-1.1,0.4-1.6,0.7c-0.5,0.3-0.8,0.7-1.1,1.2
		c-0.3,0.5-0.4,1.1-0.4,1.7c0,0.7,0.1,1.2,0.3,1.7c0.2,0.5,0.6,0.9,1,1.2c0.4,0.3,0.9,0.5,1.5,0.7c0.6,0.1,1.3,0.2,2,0.2
		c0.8,0,1.5-0.1,2.3-0.2c0.7-0.1,1.6-0.3,1.9-0.4c0.3-0.1,0.5-0.1,0.5-0.1c0.2,0,0.2-0.2,0.2-0.2l0-6.9c0-1.5-0.4-2.6-1.2-3.3
		c-0.8-0.7-2-1-3.5-1c-0.6,0-1.5,0.1-2,0.2c0,0-1.6,0.3-2.3,0.9c0,0-0.1,0.1-0.1,0.3l0.5,1.4c0.1,0.2,0.2,0.1,0.2,0.1s0.1,0,0.1-0.1
		c1.5-0.8,3.3-0.8,3.3-0.8c0.8,0,1.4,0.2,1.9,0.5c0.4,0.3,0.6,0.8,0.6,1.8v0.3C45.9,70.7,45.3,70.6,45.3,70.6 M42.3,75.9
		c-0.3-0.2-0.3-0.3-0.4-0.4c-0.1-0.2-0.2-0.6-0.2-1c0-0.7,0.2-1.1,0.7-1.5c0,0,0.6-0.6,2.2-0.5c1.1,0,2,0.2,2,0.2v3.4
		c0,0-1,0.2-2,0.3C43,76.4,42.3,75.9,42.3,75.9"/>
	<path class="st1" d="M106.1,66.7c0.1-0.2-0.1-0.3-0.1-0.3c-0.1,0-0.8-0.2-1.3-0.2c-0.9-0.1-1.5,0.1-1.9,0.3c-0.5,0.2-1,0.6-1.3,0.9
		v-0.9c0-0.1-0.1-0.2-0.2-0.2h-1.9c-0.1,0-0.2,0.1-0.2,0.2v11.2c0,0.1,0.1,0.2,0.2,0.2h2c0.1,0,0.2-0.1,0.2-0.2v-5.6
		c0-0.8,0.1-1.5,0.3-2c0.2-0.5,0.4-0.8,0.7-1.1s0.6-0.5,0.9-0.6c0.3-0.1,0.7-0.1,1-0.1c0.4,0,0.8,0.1,0.8,0.1c0.1,0,0.2-0.1,0.3-0.2
		C105.6,68,106,66.9,106.1,66.7"/>
	<path class="st1" d="M87.5,61.5c-0.2-0.1-0.5-0.1-0.7-0.2c-0.3-0.1-0.6-0.1-1-0.1c-1.4,0-2.4,0.4-3.2,1.1c-0.7,0.8-1.3,1.9-1.5,3.4
		l-0.1,0.5h-1.7c0,0-0.2,0-0.3,0.2l-0.3,1.6c0,0.1,0,0.2,0.2,0.2h1.7l-1.7,9.4c-0.1,0.8-0.3,1.4-0.4,1.9c-0.2,0.5-0.3,0.8-0.5,1.1
		c-0.2,0.2-0.4,0.4-0.7,0.5c-0.3,0.1-0.6,0.1-0.9,0.1c-0.2,0-0.4,0-0.6-0.1c-0.2,0-0.3-0.1-0.4-0.1c0,0-0.2-0.1-0.3,0.1
		c-0.1,0.2-0.5,1.4-0.6,1.5c-0.1,0.1,0,0.3,0.1,0.3c0.2,0.1,0.4,0.1,0.7,0.2c0.4,0.1,0.8,0.1,1.1,0.1c0.7,0,1.3-0.1,1.8-0.3
		c0.5-0.2,1-0.5,1.4-1c0.4-0.5,0.7-1,1-1.7c0.3-0.7,0.5-1.5,0.7-2.5l1.7-9.6h2.5c0,0,0.2,0,0.3-0.2l0.3-1.6c0-0.1,0-0.2-0.2-0.2
		h-2.4c0-0.1,0.1-0.9,0.4-1.7c0.1-0.3,0.3-0.6,0.5-0.8s0.4-0.3,0.6-0.4c0.2-0.1,0.5-0.1,0.8-0.1c0.2,0,0.4,0,0.6,0.1
		c0.2,0,0.3,0.1,0.4,0.1c0.2,0.1,0.3,0,0.3-0.1l0.6-1.6C87.7,61.6,87.5,61.6,87.5,61.5"/>
	<path class="st1" d="M53.8,77.8c0,0.1-0.1,0.2-0.2,0.2h-2c-0.1,0-0.2-0.1-0.2-0.2V61.7c0-0.1,0.1-0.2,0.2-0.2h2
		c0.1,0,0.2,0.1,0.2,0.2V77.8z"/>
</g>
</svg>
