<?xml version="1.0" encoding="utf-8"?>
<!-- Generator: Adobe Illustrator 20.1.0, SVG Export Plug-In . SVG Version: 6.00 Build 0)  -->
<svg version="1.1" id="Layer_1" xmlns="http://www.w3.org/2000/svg" xmlns:xlink="http://www.w3.org/1999/xlink" x="0px" y="0px"
	 viewBox="0 0 150 150" style="enable-background:new 0 0 150 150;" xml:space="preserve">
<style type="text/css">
	.st0{fill:#CCCBCA;}
	.st1{fill:#343433;}
	.st2{fill:#E51718;}
	.st3{fill:#FEFEFE;}
</style>
<g>
	<path class="st0" d="M79.2,139.9c-1.5-2.3-1.8-4.8-1.8-7.6c0.1-20.9,0-41.7,0-62.6c0-7,1.5-9.4,8-12c15.4-6.2,30.9-12.3,46.3-18.4
		c4.6-1.8,6.3-0.6,6.3,4.4c0,22.6-0.1,45.1,0.1,67.7c0,5.7-3.2,7.9-7.7,9.6c-15,5.9-30,11.8-45,17.8c-0.6,0.2-1,0.6-1.5,1
		C82.3,139.9,80.7,139.9,79.2,139.9z"/>
	<path class="st1" d="M11.9,39.9c2.3-1.5,4.5-1.2,7-0.2C34.6,46,50.3,52.2,66,58.4c4.5,1.8,6.5,4.9,6.5,9.7c0,22.1,0,44.2,0,66.3
		c0,2.1-0.2,4-1.7,5.6c-1.6,0-3.1,0-4.7,0c-16.9-4.8-32.7-12.6-49.1-18.7c-2.8-1-4.1-3.2-5.1-5.6C11.9,90.4,11.9,65.2,11.9,39.9z"/>
	<path class="st2" d="M79.2,10c16.1,6.5,32.2,13,48.3,19.5c0.9,0.4,1.7,0.7,2.6,1c1.1,0.5,2.5,0.8,2.4,2.4c-0.1,1.2-1.3,1.7-2.3,2.1
		c-3.9,1.6-7.8,3.1-11.7,4.7c-12,4.7-24,9.4-35.9,14.2c-5.1,2.1-9.8,2.1-14.9,0c-15.2-6.2-30.6-12.1-45.9-18.2
		c-1.6-0.7-4.1-0.8-4.1-3.2c0-2.1,2.4-2.2,3.9-2.7c15.6-6.2,31.1-12.4,46.7-18.6c0.8-0.3,1.6-0.8,2.4-1.3C73.6,10,76.4,10,79.2,10z"
		/>
	<path class="st3" d="M11.9,115.6c2.4,3.1,5.8,4.7,9.4,6.1c14,5.4,27.8,10.9,41.7,16.5c1.1,0.4,2.5,0.4,3.1,1.7
		c-17.1,0-34.3-0.1-51.4,0.1c-2.3,0-2.9-0.5-2.9-2.9C12,130,11.9,122.8,11.9,115.6z"/>
</g>
</svg>
