<?xml version="1.0" encoding="utf-8"?>
<!-- Generator: Adobe Illustrator 20.1.0, SVG Export Plug-In . SVG Version: 6.00 Build 0)  -->
<svg version="1.1" id="Layer_1" xmlns="http://www.w3.org/2000/svg" xmlns:xlink="http://www.w3.org/1999/xlink" x="0px" y="0px"
	 viewBox="0 0 150 150" style="enable-background:new 0 0 150 150;" xml:space="preserve">
<style type="text/css">
	.st0{fill:#02B6E2;}
	.st1{fill:#FFFFFF;}
</style>
<g>
	<path class="st0" d="M69.4,10.3c9-0.8,18.2,0.3,26.7,3.3c13,4.5,24.4,13.2,32.3,24.4c4.1,5.8,7.2,12.5,9.1,19.4
		c3.7,12.8,3.3,26.6-1.2,39.1c-3.4,9.8-9.2,18.6-16.7,25.8c-8.1,7.7-18.5,13.3-29.3,15.9c-14.3,3.4-29.7,1.9-43-4.5
		C35,128,24.7,118.2,18.2,106.4c-3.8-6.8-6.2-14.3-7.5-22c-1.4-9-0.8-18.3,1.8-27c3.3-11.7,9.8-22.3,18.7-30.4
		C41.7,17.4,55.3,11.4,69.4,10.3L69.4,10.3z"/>
	<g>
		<path class="st1" d="M52,85.4c-3.5-3.5-7.1-7.1-10.7-10.7c3.7-3.7,7.3-7.3,11-11c0.7-0.7,0.8-1.8,0.3-2.6
			c-0.5-1.1-2.2-1.2-3.1-0.4c-3.7,3.7-7.3,7.3-11.1,11.1c-3.7-3.7-7.3-7.3-11-10.9c-0.5-0.5-1.2-0.8-1.9-0.7c-1,0.1-1.8,1.2-1.6,2.2
			c0.1,0.8,0.8,1.4,1.4,1.9c3.4,3.4,6.8,6.8,10.2,10.2c0,0,0,0.1,0.1,0.1c-3.7,3.7-7.3,7.3-11,11c-0.5,0.5-0.7,1.4-0.4,2
			c0.3,1,1.4,1.5,2.3,1.4c0.8-0.1,1.2-0.8,1.8-1.4c3.5-3.4,6.9-6.9,10.3-10.3c3.7,3.7,7.3,7.3,11,11c0.5,0.5,1.4,0.8,2,0.5
			c1-0.3,1.6-1.2,1.5-2C52.9,86.3,52.4,85.9,52,85.4z"/>
		<path class="st1" d="M77.5,64.3c-2.2-2.2-5.2-3.7-8.1-4.1c-3.8-0.5-7.7,0.4-10.7,2.7c-4.8,3.5-7.1,10-5.4,15.6
			c1,3.3,3,6.1,5.8,8.1c2.7,1.9,6.1,2.7,9.4,2.4c2.3-0.3,4.6-1,6.7-2.2c1.5-1,2.9-2.3,3.9-3.8c0.5-0.5,0.5-1.5,0.4-2.2
			c-0.4-1.1-1.9-1.6-2.9-1.1c-0.7,0.4-1,1.1-1.5,1.5c-1.4,1.5-3,2.6-4.9,3.1c-3.3,1-6.9,0.1-9.5-2c-1.9-1.6-3.4-3.9-3.8-6.5
			c6.7,0,13.4,0,20.1,0c1.1,0,2.2-0.1,3-0.7c1.2-0.7,1.8-2.2,1.5-3.5C80.9,69.2,79.6,66.5,77.5,64.3z M57,72.3
			c0.7-2.6,2.3-4.9,4.5-6.4c2.7-1.8,6.1-2.2,9.1-1.1c3.4,1.1,6,4.1,6.8,7.5C70.6,72.3,63.8,72.3,57,72.3z"/>
		<path class="st1" d="M124.2,69.5c-1.2-3.1-3.5-5.8-6.5-7.5c-2.7-1.5-6-2.2-9.1-1.8c-4.8,0.5-9.1,3.7-11.1,8
			c-1.6,3.4-1.9,7.5-0.7,11.1c1,2.7,2.7,5.3,5,7.1c2.6,1.9,5.7,3,8.8,3s6.2-1.1,8.8-3c2.6-1.9,4.5-4.8,5.2-7.9
			C125.6,75.5,125.4,72.3,124.2,69.5z M119.2,80.8c-1.5,2.2-3.8,3.7-6.4,4.2c-2.3,0.5-4.8,0.1-6.8-1c-2.9-1.4-4.9-4.2-5.4-7.2
			c-0.5-2.9,0.1-6,1.9-8.3c1.5-2,3.9-3.5,6.5-4.1c2.2-0.4,4.3-0.1,6.2,0.8c2.9,1.4,5,4.1,5.7,7.2C121.5,75.3,120.8,78.3,119.2,80.8z
			"/>
		<path class="st1" d="M97.1,63c0.4-1.1-0.3-2.3-1.5-2.6c-2.2-0.3-4.3,0.3-6.1,1.6c-0.3-1.1-1.5-1.8-2.6-1.5c-1,0.3-1.5,1.1-1.5,2
			c0,8,0,16.2,0,24.2c-0.1,1.1,0.8,2.2,2,2.2c1.1,0,2-1,2-2c0-4.8,0-9.4,0-14.1c0-1.8-0.1-3.5,0.3-5.3c0.3-1.1,0.8-2,1.8-2.6
			c1.1-0.7,2.4-0.8,3.7-0.8C96,64.3,96.8,63.8,97.1,63z"/>
		<path class="st1" d="M109.7,71.3c-1.1,0.3-2.2,1.2-2.4,2.3c-0.4,1.2-0.1,2.6,0.7,3.4c1,1.2,2.6,1.6,3.9,1.2c1.5-0.5,2.7-2,2.4-3.7
			C114.3,72.2,111.9,70.6,109.7,71.3z"/>
	</g>
</g>
</svg>
